<?xml version="1.0" encoding="utf-8"?>
<svg version="1.1" xmlns="http://www.w3.org/2000/svg" xmlns:xlink="http://www.w3.org/1999/xlink"
	x="0px" y="0px"
	viewBox="0 0 500 500" style="enable-background:new 0 0 500 500;" xml:space="preserve">
<style type="text/css">
	.st0{fill:#0073FF;}
</style>
<g id="Background">
</g>
<g id="Objects">
	<g>
		<g>
			<g>
				<g>
					<path class="st0" d="M190.39,326.3v-97.81c0-12.82-7.22-23.22-16.13-23.22H130.7c-8.91,0-16.13,10.4-16.13,23.22V342.1
						C135.56,341.07,161.65,335.56,190.39,326.3z"/>
					<path class="st0" d="M321.85,310.06v141.92h75.82V255.96C375.88,274.45,350.2,292.84,321.85,310.06z"/>
				</g>
				<path class="st0" d="M176.19,399.48h14.2V372.6c-27.07,9.43-52.74,16.11-75.82,19.68v59.7h75.82v-26.16L176.19,399.48z"/>
				<path class="st0" d="M263.9,341.73c-15.71,7.68-31.3,14.62-46.6,20.77v36.98h15.52l-15.52,28.78v23.72h75.82V326.6
					C283.59,331.81,273.84,336.87,263.9,341.73z"/>
				<path class="st0" d="M279.78,180.02l13.34-24.73v-6.14c0-11.95-6.73-21.64-15.03-21.64h-45.76c-8.3,0-15.03,9.69-15.03,21.64
					v167.67c17.99-6.85,36.65-14.95,55.47-24.16c6.96-3.41,13.74-6.87,20.35-10.37V180.02H279.78z"/>
				<path class="st0" d="M321.85,53.66v99.37l14.56,26.99h-14.56v86.22c30.23-17.87,55.78-36.2,75.82-53.34V53.66
					c0-15.4-8.67-27.89-19.37-27.89h-37.07C330.53,25.76,321.85,38.25,321.85,53.66z"/>
				<path class="st0" d="M472.11,119.12l-41.8,43.53l21.6-0.04C435.79,201.55,365,259,275.19,302.95
					c-107.76,52.73-202.06,66.04-210.64,29.73c-4.1-17.36,12.17-42.93,42.04-70.66v-30.65c-59.37,45.85-94.93,93.12-87.72,123.66
					c11.12,47.1,119.74,36.55,242.61-23.57c100.74-49.29,179.76-116.6,198.83-165.2l11.88,22.16L472.11,119.12z"/>
			</g>
		</g>
		<g>
		</g>
	</g>
</g>
</svg>