<?xml version="1.0" encoding="UTF-8"?>
<svg version="1.1" viewBox="0 0 2048 2048" width="1280" height="1280"
    xmlns="http://www.w3.org/2000/svg">
    <path transform="translate(0)" d="m0 0h2048v2048h-2048z" fill="#68C9C5" />
    <path transform="translate(952,178)"
        d="m0 0h35l32 2 14 2 31 3 28 4 26 5 15 4 17 4 20 6 18 6 17 5 20 7 11 5 16 6 11 5 16 8 21 11 38 24 17 13 13 11 10 9 20 20 9 11 11 14 11 16 9 16 10 21 8 24 5 26 2 21v15l-3 21-4 19-2 10-24 113-11 52-15 70-1 1-3 17-3 12-2 11h21l15 4 16 8 11 7 10 9 7 6 9 11 7 10 7 16 5 18 2 11v24l-4 20-6 16-8 16-9 12-9 10-11 10-15 10-16 8-15 6-24 5h-25l-2 47-4 27-4 18-2 7-9 27-9 21-8 16-16 26-12 17-11 14-18 20-6 7-8 7-14 12-19 14-9 7h-2v157l-1 72-1 25-8 13-12 16-11 12-7 8-11 12-8 7-14 12-20 15-15 10-16 9-17 8-15 5-15 3-9 1h-19l-20-3-18-5-18-8-19-10-15-10-13-10-13-11-22-22-9-11-12-15-12-18-8-16-4-10 1-2 2-179 1-37v-20l-5-2-12-8-13-10-10-9-8-7-20-20-9-11-14-18-14-22-8-14-8-16-9-21-9-28-6-27-2-13-1-13v-58l-8 1h-23l-15-3-20-7-15-8-13-10-14-14-10-14-9-17-4-13-3-14-1-9v-16l3-19 6-19 7-13 10-13 12-13 13-10 21-11 22-6 7-1h9l-3-13-13-70-14-80-14-79-7-41-1-7-1-18 1-19 5-25 7-20 8-16 8-13 12-16 7-8 8-7 13-10 15-9 21-10 20-6 26-5h2v-17l4-27 6-18 8-17 10-16 13-16 12-12 14-11 14-9 13-7 7-3 12-5 18-6 12-3 20-3 8-2z"
        fill="#151C29" />
    <path transform="translate(1014,526)"
        d="m0 0h111l33 4 16 3 27 6 34 9 22 8 25 10 18 8 17 10 1 1v123l12 11 14 11 8 7 6 9 3 6v74l-1 4 30-1 4-1h22l15 4 16 8 11 7 10 9 7 6 9 11 7 10 7 16 5 18 2 11v24l-4 20-6 16-8 16-9 12-9 10-11 10-15 10-16 8-15 6-24 5h-25l-1-1-1-145 1-69h-2v12l-2 34-2 23-2 21-3 24-6 36-6 26-10 30-9 20-11 19-13 17-14 15-11 9-13 9-17 10-10 4h-3l-1-35-4-18-5-13-7-13-11-12-13-8-9-4-16-3-240-1-19-1h-25l-16 3-16 8-10 9-7 8-8 16-3 9-3 30-2 31-2 1-15-10-14-11-16-16-6-8-3-5-8-11-9-15-15-30-11-34-7-29-4-21-4-30-3-36-1-22v-56l1-53 2-50 3-3 13-7 9-7 5-6 7-15 3-14 1-9 1-94 8-3 24-7 11-4 38-9 27-6 34-6 54-7 49-4 21-1z"
        fill="#B36442" />
    <path transform="translate(1335,1575)"
        d="m0 0 5 1 20 9 36 17 30 14 33 17 22 12 23 13 17 11 11 8 4 3v131l-2 107v128h-84l-219-2-248-2-478-3-4-1 1-195 1-54v-120l9-7 22-12 21-11 40-20 28-13 37-17 27-11 7-1 8 20 11 28 12 26 13 26 13 23 14 24 10 17 11 16 10 14 12 16 11 14 11 13 7 8 11 12 12 13 9 9 8 7 12 11 14 11 10 8 17 12 19 12 20 11 20 9 18 7 12 2 16-4 27-11 19-10 25-15 17-12 13-10 14-11 11-10 8-7 11-11 8-7 8-8 7-8 11-12 7-8 11-13 11-14 10-13 14-21 10-16 15-26 14-27 14-30 9-27 3-13 2-14z"
        fill="#E27431" />
    <path transform="translate(1360,850)"
        d="m0 0h2v243l-2 28-4 23-3 13-2 7-9 27-9 21-8 16-16 26-12 17-11 14-18 20-6 7-8 7-14 12-19 14-9 7h-2v157l-1 72-1 25-8 13-12 16-11 12-7 8-11 12-8 7-14 12-20 15-15 10-16 9-17 8-15 5-15 3-9 1h-19l-20-3-18-5-18-8-19-10-15-10-13-10-13-11-22-22-9-11-12-15-12-18-8-16-4-10 1-2 2-179 1-37v-20l-5-2-12-8-13-10-10-9-8-7-20-20-9-11-14-18-14-22-8-14-8-16-9-21-9-28-6-27-2-13-1-13v-59l1-29v-20l1-76 2-44 1-13 2-1v18h1l1 17-1 7 3 1 3 11 2 23 6 42 7 30 7 24 7 20 12 25 11 18 8 11 7 10 9 10 10 10 16 12 11 7h1l2-31 3-30 5-14 8-14 13-13 14-8 8-3 13-2h25l19 1 240 1 16 3 16 8 8 6 7 7 7 11 6 13 4 13 2 11v35l13-5 22-13 13-10 14-13 9-11 11-15 12-22 10-25 8-26 6-29 5-32 2-18 3-34 2-28z"
        fill="#151C29" />
    <path transform="translate(1308,268)"
        d="m0 0 5 1 23 15 14 10 11 9 14 12 23 23 9 11 11 14 11 16 9 16 10 21 8 24 5 26 2 21v15l-3 21-4 19-2 10-24 113-11 52-15 70-1 1-3 17-3 12-2 11-5 2h-30v-78l-6-11-5-6-22-18-10-9v-123l-14-8-14-7-24-10-21-8-24-7-36-9-18-4-30-4-11-1h-111l-8 1h-19l-1-4-11 1-4 1-19 1-10 1h-3l15-24 10-13 11-14 10-12 9-11 6-7h2l2-4 31-31 8-7 10-9 9-8 2-2 5-2 1-3 9-6 13-10 21-14 19-12 25-14 15-8 31-14 28-11 24-8 16-5 26-6 10-3z"
        fill="#151C29" />
    <path transform="translate(833,1352)"
        d="m0 0 5 1 18 10 27 13 27 10 24 7 11 3 22 4 26 3 10 1h53l20-2 23-4 16-4 24-7 21-9 37-19 9-5h3l1 9v146l-1 72-1 25-8 13-12 16-11 12-7 8-11 12-8 7-14 12-20 15-15 10-16 9-17 8-15 5-15 3-9 1h-19l-20-3-18-5-18-8-19-10-15-10-13-10-13-11-22-22-9-11-12-15-12-18-8-16-4-10 1-2 2-179 1-37z"
        fill="#934A2C" />
    <path transform="translate(1292,1550)"
        d="m0 0 15 8 18 10 11 6-2 22-3 15-6 20-8 20-17 35-13 24-9 15-8 13-10 15-12 17-13 16-9 11-9 10-11 13-8 8-7 8-9 9-8 7-11 11-8 7-16 13-12 9-18 13-28 17-15 8-26 11-15 5-9 1-15-4-28-12-19-10-21-13-17-12-13-10-11-9-13-11-8-8-8-7-12-12-7-8-14-15-11-14-10-12-12-16-12-17-14-21-14-24-8-14-9-16-14-27-12-25-12-30-8-21v-2l-2-1 46-18 8-4h2l1 13 6 25 12 30 6 13 8 16 11 21 13 22 12 19 8 11 5 7v3h2l8 11 10 13 8 10v2h2l2 5 3 1 7 8 13 13 7 9 5 5 4 5 5-2 7-4 10-6 4-1v-2l7-4 16-10 17-11 12-7 6-4 7-4 4-1v-2l14-9h3v-2l5-3h3v2l5 2 16 10 22 14 25 16 19 12 15 10 14 9 4-1 13-13 1-2h2v-2l5-5 1-2h2l2-4 4-5 5-5 3-4h2l2-5 7-8 3-3 13-17 13-18 16-24 15-26 14-28 8-20 10-30 6-28z"
        fill="#0D9987" />
    <path transform="translate(501,1669)"
        d="m0 0 3 1v120l-1 53-1 172-1 24-203-2-5-1 2-23 6-36 6-26 9-32 13-35 15-33 14-26 13-21 12-18 12-16 11-14 12-13 7-8 9-10 8-7 9-9 8-7 12-11 17-13z"
        fill="#09766F" />
    <path transform="translate(1536,1680)"
        d="m0 0 4 2 12 8 13 10 10 8 10 9 8 7 21 21 7 8 12 14 13 17 18 27 9 15 12 21 11 22 13 31 9 25 9 30 7 30 6 35 2 18v9l-2 1h-82l-20-1-104-1-1-1v-127l2-116v-36z"
        fill="#0D9A88" />
    <path transform="translate(887,1086)"
        d="m0 0h129l149 1 8 2 8 6v3h2l3 9v12l-3 15-3 21-9 39-4 11-6 10-5 9-8 10-13 13-5 2v2l-13 8-15 8-17 6-21 5-2 1-20 2h-31l-22-3-23-5-19-7-6-2v-2l-6-2-16-10-14-12-9-11-2-5h-2l-9-16-7-20-4-26-1-13-1-32 2-13 7-10 5-4z"
        fill="#B36442" />
    <path transform="translate(1210,1495)"
        d="m0 0 4 2 16 10 17 12 19 14 18 13 7 4v8l-6 31-6 21-9 25-9 20-12 24-10 17-10 16-14 20-14 19-7 9-2 3h-2l-2 4-6 7-1 2h-2l-2 4-4 5-5 5-3 4h-2l-2 4-2 3h-2v2h-2l-2 4-13 13-4-1-21-13-18-12-19-12-20-13-11-7-18-11-8-5v-2l-5 3h-3v2l-9 5-6 4h-2v2l-7 4-10 6-17 10-17 11-7 5-7 4-4 1v2l-9 5-9 6-6 3-4-2-5-6v-2l-3-1-9-11-17-17-5-6v-2h-2l-6-8-20-26v-2h-2l-4-7-16-23-17-29-8-14-12-23-5-11-14-35-5-22v-17l7-8 9-8 3-1-2 7-8 7-1 3h-2l-1 12 1 4 2 11 4 11 4 14 2 4v4h2l1 6 2 4 12-7 17-11 20-12 6-3h3l6 15 8 14 12 17 11 13 9 11 23 23 14 11 15 11 19 11 21 10 15 5 19 4 9 1h19l20-3 16-5 16-7 17-9 15-10 19-14 13-11 8-7 11-10 7-8 11-12 11-14 9-13 4-7 1-25 1-72z"
        fill="#FDFDFD" />
    <path transform="translate(774,563)"
        d="m0 0 3 1v109l-1 77v58l1 48 2 42 3 39 5 42 6 37 9 40 11 43 2 8h2l-1 18-2 24-1 16-2 1-15-10-14-11-16-16-6-8-3-5-8-11-9-15-15-30-11-34-7-29-4-21-4-30-3-36-1-22v-56l1-53 2-50 3-3 13-7 9-7 5-6 7-15 3-14 1-9 1-94 8-3 24-7z"
        fill="#824126" />
    <path transform="translate(1308,268)"
        d="m0 0 5 1 23 15 14 10 11 9 14 12 23 23 9 11 6 8v2l-4-1-4-2-19 1-35 3-24 3-32 6-34 9-36 12-31 13-29 14-20 11-23 14-15 11-14 10-32 26-10 9-8 7-7 7-1 2h-2l-2 4-3 4-1 3h51v1l-64 1-8 1h-19l-1-4-11 1-4 1-19 1-10 1h-3l15-24 10-13 11-14 10-12 9-11 6-7h2l2-4 31-31 8-7 10-9 9-8 2-2 5-2 1-3 9-6 13-10 21-14 19-12 25-14 15-8 31-14 28-11 24-8 16-5 26-6 10-3z"
        fill="#151C28" />
    <path transform="translate(833,1352)"
        d="m0 0 5 1 18 10 27 13 27 10 24 7 11 3 22 4 26 3 10 1h53l20-2 23-4 16-4 24-7 21-9 37-19 9-5h3v7l-14 11-29 19-26 16-4 2-1 3-9 4-16 9-24 14-25 14-24 14-28 16-26 14-22 12-23 13-24 13-17 10-23 13-24 14-18 10h-2v-86l1-89 1-37z"
        fill="#622E18" />
    <path transform="translate(1245,235)"
        d="m0 0 9 3 13 6 28 14 15 9-2 1-1 3-46 12-36 12-33 14-28 13-23 13-16 9-15 10-19 13-19 14-11 9-13 12-11 10-8 7-26 26-1 2h-2l-2 4-11 12-7 9-13 16-10 13-12 19-5 8-9 3-22 3-14 2-22 1-1-6 10-30 15-33 12-21 14-21 9-12 7-9 8-10 12-13 28-28 11-9 13-10 20-14 15-10 17-10 27-14 30-14 34-12 30-9 27-7 23-5 11-3z"
        fill="#232E44" />
    <path transform="translate(1399,355)"
        d="m0 0h6l5 3 5 1 13 18 10 18 10 21 8 24 2 12-2-4-2 1h-17l-13-1h-49l-31 2-35 4-38 6-40 10-26 8-27 10-29 12-19 10-16 8-9 6 15 1v1h-42l-51-1 1-5 5-6h2l2-4 12-12 8-7 17-14 14-11 10-8 19-13 10-7 15-9 21-12 24-12 33-14 28-10 35-10 22-5 28-5 38-4z"
        fill="#232E44" />
    <path transform="translate(659,823)"
        d="m0 0 32 3 1 1v16l-1 20-2 20-2 44-1 77v19l-1 29-9 2h-23l-15-3-20-7-15-8-13-10-14-14-10-14-9-17-4-13-3-14-1-9v-16l3-19 6-19 7-13 10-13 12-13 13-10 21-11 22-6z"
        fill="#824226" />
    <path transform="translate(1021,774)"
        d="m0 0h1l9 100 3 40 2 31h36l18 1 14 3 4 4 2 7 1 10v39l-4 16-6 10-9 10-8 5-3 1h-51l-48-1-17-8-9-7-7-8-5-11-3-14v-23l3-18 4-8 6-5 6-2 8-1h27l2-18 8-58 11-66 4-26z"
        fill="#934A2C" />
    <path transform="translate(690,1577)"
        d="m0 0h4l8 20 11 28v1l-9 3-12 6-24 15-24 16-10 7-30 22-11 9-8 7-5 5-8 7-8 8h-2l-2 4-9 7-5 5-8 7-7 8-10 11-8 10-3 1-1 4-3 3-1 3h-2v-125l9-7 22-12 21-11 40-20 28-13 37-17 27-11z"
        fill="#B36442" />
    <path transform="translate(210)" d="m0 0h1838v16h-64l-77-1-422-3-512-4-178-2-243-1-126-1-216-3z"
        fill="#FEFEFE" />
    <path transform="translate(0)"
        d="m0 0h15v115l-1 155-1 81-2 310-1 96-1 186-1 148-1 70-2 275-2 290-1 113-1 49h-1z"
        fill="#FEFEFE" />
    <path transform="translate(1536,1680)"
        d="m0 0 4 2 12 8 9 7-1 2-12-8h-7l-1 2v68l-1 4v29l2 8 10 15 10 16 10 18 10 19 14 34 9 27 7 28 5 27 4 31 2 26 21 1v1l-36 1h-73l-1-1v-127l2-116v-36z"
        fill="#09766F" />
    <path transform="translate(2047,340)"
        d="m0 0h1v1708h-14v-149l1-75 1-216 1-119 1-67 2-307 1-67 1-185 2-170 1-188 1-118z"
        fill="#FEFEFE" />
    <path transform="translate(497,1803)"
        d="m0 0h1l1 53v60l1 19-1 24-1 51-1 6v6l1 5-2 7h-2v2h-82v-9l5-32 5-25 9-33 12-35 11-26 14-28 6-11 12-19 10-14z"
        fill="#0D9A88" />
    <path transform="translate(0,2034)"
        d="m0 0h122l68 1 216 2 99 1 207 1 168 1 254 2 225 2 91 1 188 1 20 1v1h-1658z" fill="#FEFEFE" />
    <path transform="translate(1361,839)"
        d="m0 0 2 1v30h14l22 4 14 7 10 7 13 13 8 15 4 16v21l-4 16-8 16-9 11-10 8-15 8-14 4-8 1h-17v9h-1l-1-88v-19l1-69h-2v-10z"
        fill="#834227" />
    <path transform="translate(914,1115)"
        d="m0 0h226l-2 5-6 11-11 13-10 8-16 9-19 7-17 4-13 2h-31l-20-3-19-5-13-5-16-8-13-10-9-10-9-14z"
        fill="#FEFEFE" />
    <path transform="translate(666,869)"
        d="m0 0h22l1 1v13l-2 44-1 77v19h-1v-17h-27l-12-3-14-6-12-9-8-10-8-15-4-14v-19l3-6 1-8 3-1 3 5-1-4-3-4 2-5 4 2 2 5 1-3 6 1v-3h3l-2-2-2-7 1-5-3 4 1 6-4 1v2h-2v-3l-3-1 2-6 9-10 9-8 13-6 15-4z"
        fill="#622E18" />
    <path transform="translate(861,805)"
        d="m0 0h21l14 5v2h3v2l4 1 8 7 6 9 4 8 3 11v22l-4 12-5 9-9 10-4 3h-2v2l-13 6-11 2h-14l-11-3-11-6-10-9-7-10-4-9-2-7v-25l5-14 8-11 8-7 10-6z"
        fill="#17141A" />
    <path transform="translate(1181,806)"
        d="m0 0h13l13 3 8 4v2h3v2l5 2 8 8 6 10 5 14v24l-4 12-6 10-7 8-4 1v2l-6 4-11 5-5 2h-18l-12-4-11-7-8-7-7-10-5-12-1-4v-24l5-15 6-9 6-7 8-6 12-6z"
        fill="#17141A" />
    <path transform="translate(861,695)"
        d="m0 0h24l19 4 17 6 10 6 7 8 2 4v14l-4 8-9 10-11 7-7-1-16-7-14-3-7-1h-19l-15 3-14 5-10 4-4 1h-11l-6-3-5-4-6-10-1-3v-14l5-8 5-5 5-4 16-8 24-6z"
        fill="#151C29" />
    <path transform="translate(1170,697)"
        d="m0 0h30l9 1 1 1 14 2 9 3 19 7 7 4v2l4 2 2 4h2l3 7v13l-4 9-5 6-11 7-6 1-21-8-18-4-7-1h-23l-28 7-9 3-6-1-8-6-6-7-4-6-2-6v-11l3-6 6-7 8-5h3v-2l15-5z"
        fill="#151C28" />
    <path transform="translate(746,1554)"
        d="m0 0h2l1 13 6 25 4 10 3 8v4l-41 9-6 1 1 4h2l3 3 1 7h2l8 17 8 16 12 22 12 20 6 11 10 15 7 11 14 19 12 16 14 18v2h2l9 11 8 8 7 8 9 10 9 8v2l4 2 10 10 10 8 10 9 16 12 5 3 2 2 1 2 5 2 6 4 3 3 6 3v2l6 1v2l6 2 18 9 14 5 9 4 5 1h22l15-4 13-7 11-4 14-8 8-4 10-7 6-4 13-9 16-12 10-8 9-7 19-19 8-7 14-15 11-12 7-8 10-11 9-11 13-17 10-14 10-15 12-20 11-18 7-11 2-4h2l1-6 7-15 4-9 5-12 3-8 8-24 4-21v-12l-1-2h5l1 2-2 21-3 15-6 20-8 20-17 35-13 24-9 15-8 13-10 15-12 17-13 16-9 11-9 10-11 13-8 8-7 8-9 9-8 7-11 11-8 7-16 13-12 9-18 13-28 17-15 8-26 11-15 5-9 1-15-4-28-12-19-10-21-13-17-12-13-10-11-9-13-11-8-8-8-7-12-12-7-8-14-15-11-14-10-12-12-16-12-17-14-21-14-24-8-14-9-16-14-27-12-25-12-30-8-21v-2l-2-1 46-18z"
        fill="#0A8578" />
    <path transform="translate(600,920)"
        d="m0 0h2v8l-1 2v19l5 16 7 13 9 11 14 9 16 6 6 1 27 1v46l-9 2h-23l-15-3-20-7-15-8-13-10-14-14-10-14-9-17-2-5 1-3 5-3 2 3 3 1v-2h3l1-4 5-4h2v-2h2l2-4 5-5 9-10 1-7v-3h2v-6z"
        fill="#834227" />
    <path transform="translate(1018,1744)"
        d="m0 0h3v2l5 2 16 10 22 14 25 16 19 12 15 10 14 9v3l-5 3-6 7-19-9-34-18-30-15-18-10-8-4-5 1-40 21-27 14-16 8-15 7-4-2-5-5 1-4 8-7 9-5 4-1v-2l7-4 16-10 17-11 12-7 6-4 7-4 4-1v-2l14-9h3v-2z"
        fill="#097770" />
    <path transform="translate(925,1172)"
        d="m0 0 4 1 18 13 19 10 22 8 19 4 8 1h29l24-5 19-7 18-10 3-1-3 10-10 15-13 13-17 12-13 6-9 3-5 1h-22l-16-4-12-5-15-8-10-8-10-9-12-13-10-15z"
        fill="#632F18" />
    <path transform="translate(942,978)"
        d="m0 0 2 1 5 14 8 11 7 7 21 12 15 6-2 4-12 13v2h11l5-1 6-2 13-11 4-5h2v2l20-1 21-4 23-8 12-6 3-4h2l1-3h1v9l-4 13-7 11-7 7-8 5-3 1h-51l-48-1-17-8-9-7-7-8-5-11-3-14v-23z"
        fill="#834227" />
    <path transform="translate(746,1554)"
        d="m0 0h2l1 13 6 25 4 10 3 8v4l-50 11-11-28-7-18v-2l-2-1 46-18z" fill="#097770" />
    <path transform="translate(713,1625)"
        d="m0 0 3 1v2h2l3 3 1 7h2l8 17 8 16 12 22 12 20 6 11 10 15 7 11 14 19 12 16 14 18v2h2l9 11 8 8 7 8 9 10 4 4 1 3 8 7 7 9 2 3-4-1-9-9-8-7-12-12-7-8-14-15-11-14-10-12-12-16-12-17-14-21-14-24-8-14-9-16-14-27-12-25z"
        fill="#0A8678" />
    <path transform="translate(450,1837)"
        d="m0 0h3l2 6 2 2 6 1 2 1-1 4h-10l1 8-5 1-2-4-5 1 1 4-1 2-6-1-1 7-7 9-1 7-5 5-7 8h-3l-5-5-6-4 1 4 4 2v2l5 2-1 4-7 6h-3l-3-5-4-3v-2h-2l-1-3 7-8 4-1 1-4 8-7 7-8 9-9 4-1 4 1-2-3 1-4 5-3 5-5 4-1z"
        fill="#0A8678" />
    <path transform="translate(502,1795)"
        d="m0 0h1v48l-1 172-1 24-95-1v-1l8-1v-1h77l3 1v-2h2l1-11-1-1v-10l1-2 1-51 1-27-1-26v-57l-1-47 3-1 1 24v-26z"
        fill="#0C887A" />
    <path transform="translate(866,1847)"
        d="m0 0 5 3v2l4 2 10 10 10 8 10 9 16 12 5 3 2 2 1 2 5 2 6 4 3 3 6 3v2l6 1v2l6 2 18 9 14 5 9 4 5 1h22l15-4 13-7 11-4 14-8 3 1-6 4-8 4-4 3 1 2-25 11-18 6-9 1-15-4-28-12-19-10-21-13-17-12-13-10-11-9-10-8v-3l-7-8-5-5-1-3-3-1z"
        fill="#0A8678" />
    <path transform="translate(1022,1082)"
        d="m0 0h134l10 1 9 3 8 6 4 7 1 6v11l-1 6-2-1v-14l-2-9h-2v-3l-4-2-6-4-6-1-272-2-1-2 23-1z"
        fill="#15141B" />
    <path transform="translate(1360,850)"
        d="m0 0h2v138h-1l-1-35-5 2-1 6-1 15-4 25-3 10-2 10-3 11-2 7h-2l-2 11-5 13-6 11-5 8-3-1 8-16 8-20 8-26 6-29 5-32 2-18 3-34 2-28z"
        fill="#1B161A" />
    <path transform="translate(1431,598)"
        d="m0 0 3 1 4 10 3-1-1 10-3 14h-1v-12l-8 2 3 3-1 3-5-2-6-4-1 7-3 2-1 3-3 2h-3l1 5h2l1 3-2 4-5 3-6 7-5-1-5-3-3-6-2-3 4-5 5-2 1-3h2l1-4 7-7 7-4h4v-6l4-1 3 2v-7l4-2 3 1 1-4z"
        fill="#1B2735" />
    <path transform="translate(868,537)"
        d="m0 0 4 1-1 4-33 6-59 14-10 4-28 8-1 94-3 19-4 11-6 11-7 7-13 8-6 3h-2l-3 72h-1l-1-26v-8l1-5v-29l3-7 10-7 15-10 1-2 4-2 7-19 1-3 1-15 1-5v-64l1-25 2-3 26-8 17-6 20-2 2-2h9v-3h7l3-2 8-1 2-1v2h2v-2l5-2h7l2 1v-2l9-1h3l1-2z"
        fill="#17141A" />
    <path transform="translate(1292,1550)"
        d="m0 0 5 3v2h-2l-2 19-5 17-1 6-5 16-5 13-4 12-4 8-5 12-5 10-8 14-3 5-4 7-7 13-8 11-6 9-5 6-3 6h-2l-2 5-2 3h-2l-2 4-12 15-7 8-5 6-8 7v-3l6-8h2l2-5 7-8 3-3 13-17 13-18 16-24 15-26 14-28 8-20 10-30 6-28z"
        fill="#179184" />
    <path transform="translate(858,1363)"
        d="m0 0 8 1 10 5v2l7 1 5 2v2l7 1 9 3 16 5v2h7l11 3 11 2 12 3 13 2 1 2h10l21 1h49l24-3 23-3 9-2v4l-12 3-23 4-20 2h-53l-22-2-25-4-13-3-23-6-24-8-24-10-14-7z"
        fill="#14131B" />
    <path transform="translate(1007,1283)"
        d="m0 0 1 4h2v2l7 1 2 4-5 3-4-1 1 8-2 2h-4l-1 5h-4l-2-3h-5l-1 5-3 2-1 3-4 3h-2l4 7-5 5-4 5-4 4-5-1-5-5-5-4 1-5 4-3 4 1 8 6 2-2-4-4v-2l-4-1v-5l7-7h2l1-3 7-4h2v-5l4-2 11 9-3-6-4-4v-3h2l1-2 3 1 2-7z"
        fill="#1D2939" />
    <path transform="translate(1611,1965)"
        d="m0 0h1l4 21-1 4-8 6-7 3-2 5-9 5-2 6h-2v2l-4-1-5-7-2-1-1-5 17-17h2l2-4 10-10 6-4z"
        fill="#0A8678" />
    <path transform="translate(762,1612)"
        d="m0 0 2 3 4 8 4 10 8 17 12 22 13 22 12 19 8 11 5 7v3h2l8 11 10 13 8 10v2h2l2 5 3 1 7 8 13 13 7 9 5 5 3 4v2l-5-2-5-6v-2h-2l-7-8-20-20-10-13-3-4v-2h-2l-9-12-6-7-11-17-9-13-11-17-5-8-6-11-7-12-5-9-8-16-4-7-1-5-4-8v-3l-2-1h4z"
        fill="#138B7F" />
    <path transform="translate(843,829)" d="m0 0h8l7 4 4 7v10l-3 6-6 5-5 2-8-1-8-7-2-5v-7l3-6 8-7z"
        fill="#FEFEFE" />
    <path transform="translate(1162,831)"
        d="m0 0 8 1 5 3 5 6 1 3v8l-4 8-5 4-2 1h-7l-6-2-5-5-2-4v-9l3-7 7-6z" fill="#FEFEFE" />
    <path transform="translate(1230,803)"
        d="m0 0 3 1-2 11-2 1v5h2v2l3 1 3 5 4 11 2 7 2 4 2 9v9l-2 13-2 9-1 2h-2l-2 4-6 8-6 2-1 2-9 6-5 4-8 3h-22l-5-1v-2l-7-1-9-5v-2l-5-2-9-10-7-12-2-7h2l8 16 7 8 11 8 12 5 4 1h18l10-4 9-5 3-1v-2l6-4 8-11 4-9 2-7v-24l-3-9-5-10-6-8-7-6-2-1v-2h-3v-2l-4-1v-2l8 1 4 2v2l3-1 1-7z"
        fill="#BB6944" />
    <path transform="translate(1006,527)"
        d="m0 0h28v1l-11 2-14 1-12 5-4 2-1 6-5 1v-2l-4-1-1-1-1 3h2l-1 5h-4l-1 2h-2l-2 5-6 10v5l-4 1-3-1-7-7v-4l3-3h2v-2l4-2 1-2h2v-2l8-3 2-3-1-2 5-1v-6l-2-1v-2l-16 3h-8l-7-1 1-2 38-3z"
        fill="#BE6B45" />
    <path transform="translate(1116,527)"
        d="m0 0h20l30 4 35 8 34 9 22 8 25 10 18 8 17 10v25h-2l-2-17v-3l-2-1-5-5-13-7-10-4v-2l-9-2-7-3-20-8h-9l-10-3-8-6-13-4-10-2-4-1-10-3-14-2-23-4-30-4z"
        fill="#BC6A44" />
    <path transform="translate(855,1175)"
        d="m0 0 5 2 2 2-1 5-5 6-3 2 1 4 2 5-4 2-3-1v-2h-2v3h3l-1 4-5 6-5 1-2 5-5 5h-4l-4-4-3-2-3-5 2-5 4-2v-2l4 2 5 4 3 3 1-3-6-4v-2l-3-1 2-5 4-3h3l1 2 5 1-1-5h-2l2-6 4-5z"
        fill="#1C2836" />
    <path transform="translate(947,568)"
        d="m0 0 10 3-1 3h2l3 4h-2l-1 4-3 4h-3l-2 5-5 5h-3l-5-5-5-1 3 6 4 3-1 3-4 2-5-1-2 4h-2l1 7-4 1-6-5-3-4v-5l4-1 3 3 1-5 3-2-2-1v-2h2v-3l7-2 1-7 5-2v-2l4-1 3-6z"
        fill="#BE6B45" />
    <path transform="translate(838,418)"
        d="m0 0h6l2 2v5l-4 6-6 5-2 4 5 1-2 4-4-1-7-7-4 1-3 5 2 1 1-2h5l1 5h4l-1 4-17 17h-2l-3-5-7-8 3-5 5-2 2-4 2-3h2l1-3 5-2 2-4 10-11z"
        fill="#1C2837" />
    <path transform="translate(592,922)"
        d="m0 0v3l-1 1v5h5l1 9-3 5-10 11h-2l-3 6h-2v2l-5 4h-2l-1 4h-3v2l-4-1-2-2-2 2-1-3 1-4-4-2v-3h2l1-3 2 1 1-4h2l1-4 4-4 4 1 4 5v3h6v-3h-2v-2l-4-2-3-4h-3l6-7h2v-2l3 1v2l6 2-2 5 3 1 3-3-2-4-6-5 1-5 8-7z"
        fill="#944B2D" />
    <path transform="translate(1207,1508)"
        d="m0 0h1v68l-1 32-7 11-12 16-11 12-7 8-11 12-8 7-14 12-11 8v-3l2-3h2l2-4 4-2v-2l7-4h2l2-4 16-16 6-9 11-9 4-3 1-3h2l2-4 6-9 2-6h2l2-4 2-3v-47l2-20 1-2z"
        fill="#914A29" />
    <path transform="translate(874,1153)"
        d="m0 0h4l1 3 3 6-2 4v4l1 4v2h-2l1 12 5 13v3l2 1 8 14 4 4v2h2l6 8 5 4v2l4 2 5 4 5 3v2l5 2 6 3v2l5 1 18 9 5 1v2l6 1 5 2 8 2v1l-10-1-20-6-13-5v-2l-6-2-16-10-14-12-9-11-2-5h-2l-9-16-7-20-3-17v-15z"
        fill="#BE6A43" />
    <path transform="translate(1288,483)"
        d="m0 0 4 2 5 3 1 4 3 1 1 4-1 2-5-1-5-4-4 8-5 5h-2l-1 5 3 1-2 5h-3l-2 5-5 5-5-1-6-4-3-3v-5l5-5 5 1 2 1 1 8 6-2-1-4-4-3v-2l-4-1 1-4 11-12 5-2h2l1-5z"
        fill="#1C2836" />
    <path transform="translate(813,1216)"
        d="m0 0 6 1 3 3 2 5 3 2v4l-6 2h-6v9l-1 2h-5v-2l-5-1-1 7 1 4-1 2h-5l-11-10 2-5 4-4 5 1 2 3 2-1-1-3-2-1 1-5 4-5 8-7z"
        fill="#222D41" />
    <path transform="translate(1170,697)"
        d="m0 0h30v1l-14 1-3 1-15 1-16 3-16 5-10 5-8 9-3 6 1 7 5 9 5 6v2h2l3 3h9l13-4 9-2h19l1 2-20 4-22 6-6 1-9-6-7-8-4-6-2-6v-11l3-6 6-7 8-5h3v-2l15-5z"
        fill="#1D161A" />
    <path transform="translate(1177,1844)"
        d="m0 0h3l-2 4-15 15-8 7-16 13-12 9-18 13-28 17-12 6-3-1 9-6 5-3 4-2 4-4 17-11 11-8 18-13 11-9 9-7 4-4 5-3 8-7 5-5z"
        fill="#097B72" />
    <path transform="translate(954,1333)"
        d="m0 0 3 1v3l1 2h2l1 6 5-2 1 4-4 5-4 1-5-5-3-2v9l6-1v3l-2 3-6 2-4-1-3 4 1 5-1 3-4-1-3-3-2-1-3-5-1-5 3-4h2l2-4 5-4 6-2 1-5 5-5z"
        fill="#1C2836" />
    <path transform="translate(742,774)"
        d="m0 0 4 1 4 7 3 2-1 4-5 1-5 3-2 3h2l1 3-1 2h-2v-2l-9 1-3 4v4h2l-1 4-4-1v-2l-4-2-5-4v-5l5-5 7-6 3-3 6-5 3-3z"
        fill="#92492B" />
    <path transform="translate(749,1024)"
        d="m0 0 1 2-1 5 5 1 4 4-6 3 1 8-4 1h-2l-1 6-4 1-1-6-6 1-2-1 1 4-3 6-2 3h-3l-5-15v-4l3-1 3 3h4l1-5 4-3 3-5 4 1 2 1 1-8z"
        fill="#92492C" />
    <path transform="translate(1024,232)"
        d="m0 0h4v4h2l1 4-4 6-4 4-1 5 1 4-12 12-5-3-8-8 1-4 6-6 3 1-2 1v4l4 1 1 4 1 2 6-3-2-4-5-4-3-3 2-4 10-10z"
        fill="#222D41" />
    <path transform="translate(1183,846)"
        d="m0 0 6 1 3 4 1 5 3 1-2 4-7 2-3 1-1 7h-2v2l-6-2-3 3h-2l4 6-2 4-5-1-7-8-1-5 2-1v-5h9l6-4 4-8h3z"
        fill="#1B1D27" />
    <path transform="translate(739,574)"
        d="m0 0h1v94l-3 19-4 11-6 11-7 7-13 8-6 3h-2l-3 72h-1l-1-26v-8l1-5v-29l3-7 10-7 15-10 1-2 4-2 7-19 1-3 1-15 1-5v-64z"
        fill="#14131A" />
    <path transform="translate(1201,698)"
        d="m0 0h8l1 1 14 2 9 3 19 7 7 4v2l4 2 2 4h2l3 7v13l-4 9-5 6-11 7-6 1-18-7 2-2 11 2h10l7-4h2v-2l5-5 2-9v-8l-4-8-11-8-9-5-8-3-10-2-5-2-13-1-1-3z"
        fill="#23181A" />
    <path transform="translate(653,603)"
        d="m0 0 5 1 3 2-1 7-8 7 2 8-2 3h-4l-2 5-6 5-3-1-1-4-4-2-4-4 4-7 3-1-1 7h3v-2h4l1 3-1 3 6-2-3-7-5-4 1-5 5-3 4-6z"
        fill="#1C2836" />
    <path transform="translate(1111,402)"
        d="m0 0 4 1 4 4-1 7-3-1 1-4h-6v2l-6 4-2 3 7-3 2-2 4 1v3l-2-1v3l-3 2 1 4v4l-3 3-4-5-2-1-2 4-3 3 2 4v4h-3l-5-5-5-4 1-5 6-7h3l1-5 7-7z"
        fill="#212C3F" />
    <path transform="translate(1310,270)"
        d="m0 0 6 1 22 14 17 13 13 11 10 9 20 20 8 10-1 3-7-6-5-5-2-4h-2v-3l-3-1v-2l-3-1-5-6-3-2v-2l-5-2-1-3-5-2v-2l-4-2-5-3v-2h-3v-2l-5-2v-2l-8-4v-2l-5-2-3-3-9-5-7-6-5-3z"
        fill="#141C23" />
    <path transform="translate(1319,1226)"
        d="m0 0h6l-2 5-10 17-13 19-4 4-2-7 4-8-6 1-2 5 1 4-7-2 2-4 5-6 5-5 6-4 3-5h3l2-4 4-2 3 1 3-1v-2h-2z"
        fill="#1C2B39" />
    <path transform="translate(1360,850)" d="m0 0h2v90l-3 7-3 2v-11l-2 1v-14l2-19 2-28z"
        fill="#1D181D" />
    <path transform="translate(1536,1680)"
        d="m0 0 4 2 12 8 9 7-1 2-12-8h-7l-1 2v68l-1 4v10l-1 10h-2v17h-1v-36z" fill="#0A7E74" />
    <path transform="translate(816,1508)"
        d="m0 0 1 2-7 9h-3v7l2 1v4h-2l2 12-1 7-1 1v12l-2-1-1 5-3-1v-7l2-1-1-4-1-6 1-5-1-1v-9l-2-1 1-2-10-1 2-4 7-7 7-6 6-2z"
        fill="#E07633" />
    <path transform="translate(799,710)"
        d="m0 0 2 1v5l-9 4-2 3h-2l-2 7-3 1 1 12 9 11 8 4 14-1 4-2 7-2 20-5 11-1h11v2l-21 2-15 4-15 6-7 2h-11l-6-3-5-4-6-10-1-3v-14l5-8 5-5 5-4z"
        fill="#1C161A" />
    <path transform="translate(1370,660)"
        d="m0 0 5 2 4 8 3 3-1 4-5 1-7 1v9l-3 1-4-3-4-1-1-3-2-1-1-6 1-2h2l2-4 7-7z" fill="#1C2836" />
    <path transform="translate(878,1050)"
        d="m0 0h25l16 2-2 2h-40l-7 1-6 2-14 7-5 2-5 5-2 3h-2l-2 4-6 9-8 20-2 11-2 1 1-15 5-14 8-14 13-13 14-8 8-3z"
        fill="#1A161A" />
    <path transform="translate(387,1900)"
        d="m0 0 6 1 3 4 1 4 3 2-1 4-1 1-9 2v8l-5 2-6-5-5-4v-2h-2l2-4 12-12z" fill="#0B8779" />
    <path transform="translate(932,840)"
        d="m0 0 3 3 1 5 1 3-2 4 1 1v5l-4 1-4 10v4h-2l-1 9-1 3h-2l-2 5-4 4-7 6h-2v2l-3 1 2-4 9-10 6-13 2-7v-22l-1-9 4 3 1 3h3z"
        fill="#BD6B45" />
    <path transform="translate(763,751)"
        d="m0 0h6l1 5 3 5 2 1-1 3-5 7-12 9-7-6-1-2-3-2 1-5 5-2 1-2 8 6 3 3 2-1v-2l-4-2-4-5v-2l-2-1 4-5h3z"
        fill="#934A2C" />
    <path transform="translate(1246,1686)"
        d="m0 0 2 2-3 3-8 16-8 11-6 9-5 6-3 6h-2l-2 5-2 3h-2l-2 4-12 15-7 8-5 6-8 7v-3l6-8h2l2-5 7-8 3-3 13-17 13-18 16-24 6-10z"
        fill="#148D81" />
    <path transform="translate(1211,817)" d="m0 0 5 1 8 7 1 5-5 5-5 7-4 1-8-7-1-3-4-2 7-8z"
        fill="#151C29" />
    <path transform="translate(698,937)"
        d="m0 0h1l5 39 5 26 7 27 6 18v3l-3 1-4-10-7-24-5-21-3-14-2-15-1-18v-10z" fill="#14131A" />
    <path transform="translate(695,815)" d="m0 0h1v73l1 30-2-4-3-3v-13l-2-4v-31l1-20v-16l-1-3 4-1z"
        fill="#14131A" />
    <path transform="translate(915,701)"
        d="m0 0 16 5 7 6 6 11 2 5v10l-3 9-8 6-5 4-5 3-1 2-9 3-4-2 12-6 10-9 5-8 1-3v-14l-6-9-6-5-12-6z"
        fill="#BC6A44" />
    <path transform="translate(1183,1139)"
        d="m0 0h1v9l-4 21-4 17-4 15-10 19-8 11-5 6h-2v2l-8 7-7 5h-2v-2l8-6 12-12 9-13 6-12 4-9 6-25 4-17 2-14zm-55 112 2 1h-3zm-3 2 2 1z"
        fill="#231819" />
    <path transform="translate(971,524)"
        d="m0 0 3 1 4-1h8l1 4-2 1-49 4-54 7-3-1 4-3 22-2 7-1 29-5 1-1 25-2 4 1z" fill="#20181B" />
    <path transform="translate(861,695)"
        d="m0 0h24l19 4 6 2v1l-12-1-11-1-9-2-22 2h-10l-11 3-7 1-9 3-9 4-4 1-1-5 14-5 23-5z"
        fill="#1C161B" />
    <path transform="translate(674,580)"
        d="m0 0h3l1 9 11 2v3l-4 1h-7l2 9-6 1-2-4-4-2 2 6 4 2-1 4h-4l-1-3-9-5-2-5 2-2 8 1-3-5 3-3 5 2h2z"
        fill="#222E42" />
    <path transform="translate(798,459)"
        d="m0 0 6 3 3 8 2 1-2 4h-6-4l-2 2 2 8-5 1-2-5-5-2-1-3-3 1 2-5 3-1 2-4 8-7z" fill="#222D42" />
    <path transform="translate(708,1064)"
        d="m0 0h1l1 7 6-2-1 2h-2l1 4-1 3 7-2-2 4-3 4-5-2-1-2-3 1-1 2-3 1-1 5 6-3 2 3-6 5-4-2v-2l-5-2-1-5-2-1 1-3 5-2v-2h2l2-5z"
        fill="#1C2836" />
    <path transform="translate(1187,1361)"
        d="m0 0 4 1-4 3-33 17-21 8-19 5-2-2 1-2 11-4 22-7 12-6 14-6 12-6z" fill="#14131B" />
    <path transform="translate(848,545)"
        d="m0 0h7l-1 3-15 3-9 4-12 2-12 3h-8v1l-9 3-7 4h-2v2h-2v-8l9-3 51-12z" fill="#C66D40" />
    <path transform="translate(917,853)"
        d="m0 0 4 2 1 2v6l-6-4v2h2l1 7-9 11-1 4 1 3-4 1-5-5v-2l-2-1-3-3 5-5 5-4 7-8z" fill="#141B28" />
    <path transform="translate(974,1315)"
        d="m0 0 4 5 8 7-2 4-6 5-5 6-5-1-5-5-5-4 1-5 4-3 4 1 8 6 2-2-6-7v-5z" fill="#1C2836" />
    <path transform="translate(1426,376)"
        d="m0 0 3 3 9 16 10 21 8 24 2 12-2-4-7 1 2-1v-6l-4-14-5-14-2-6-2-1-4-10-9-16z"
        fill="#1A3944" />
    <path transform="translate(1247,708)"
        d="m0 0 9 3 7 3 4 4 4 7 2 3v3l2 1v12l-2 5h-2v3l-5 5-1 3-9 5-6 3h-7l-10-4-2-3 5 1 8 3 6-1 11-7 6-8 2-6v-13l-2-7h-2l-4-5-2-1v-2l-5-2-7-4z"
        fill="#BC6A45" />
    <path transform="translate(726,1062)"
        d="m0 0 3 4 10 21 11 18 8 11 7 10 9 10 10 10 16 12 10 7-4 1-10-7-4-4-3-1-5-5-11-9-7-7-7-9-18-28-8-15-4-7-2-6h-2l-1-3z"
        fill="#14131A" />
    <path transform="translate(936,1087)" d="m0 0h107l80 1v1l-55 1h-54l-18-1h-33l-27-1z"
        fill="#BF6C46" />
    <path transform="translate(1068,1052)" d="m0 0h94l6 1v2l-18 1h-46l-13-1-23-1z" fill="#291A19" />
    <path transform="translate(1113,195)"
        d="m0 0h7l30 7 20 6 18 6 8 2 2 5-9-2-10-3-10-4-11-4-9-1-20-5-4-2-9-1v-2h-3z" fill="#151921" />
    <path transform="translate(990,1296)"
        d="m0 0 5 2 2 3-5 1 5 5-4 1-1 5-3 2-1 3-4 3h-2l1 4-7-6-2-3-3 1 1 6-3-1v-5l7-7h2l1-3 7-4h2v-5z"
        fill="#1C2736" />
    <path transform="translate(1207,1508)" d="m0 0h1v68l-1 32-1 2-5 1 2-5v-47l2-20 1-2z"
        fill="#834227" />
    <path transform="translate(873,1184)"
        d="m0 0 4 2 7 20 8 14v2h2l6 9 9 10 13 10 15 9 4 3-3 1-11-6-9-6-7-5v-2h-3l-7-9v-2l-4-2-5-6-2-5h-2l-6-9-6-12z"
        fill="#22181A" />
    <path transform="translate(914,1642)"
        d="m0 0h2l1 7 5-2-4 6-10 10-6 5-6-5v-2h-3v-9l4-3h2l1 2 5 2-1 5 3 1 5-2-1-5-4-1-1-3 3-3z"
        fill="#B26342" />
    <path transform="translate(818,878)"
        d="m0 0 2 1 7 14 10 11 14 8 11 3h14l11-2 4 1-9 4-7 1-5 2-1 3 1 3-5-2-9-3-2-6-12-4-13-11v-2h-2l-9-18z"
        fill="#BE6B45" />
    <path transform="translate(1270,503)"
        d="m0 0 2 1-1 2 7 2 1 3 3 2-2 5h-3l-2 5-5 5-5-1-6-4-3-3v-5l5-5 5 1 2 1 1 8 6-2-1-4-4-3v-2h-2l1-5z"
        fill="#1D2938" />
    <path transform="translate(1145,1232)"
        d="m0 0h3l-2 4-11 11-5 2v2l-13 8-15 8-17 6-21 5h-10l3-2 10-2 9-2 10-4 7-2 9-4 7-3 9-5 12-8h2l1-3 6-5h2l1-3z"
        fill="#BC6944" />
    <path transform="translate(1318,704)"
        d="m0 0 1 3h2v2l5 1 8 7 3 2v2l4 2 11 10 3 3v3h2l6 9 1 11-1 6-1 42h-1l-1-55-6-11-5-6-22-18-10-9z"
        fill="#261919" />
    <path transform="translate(762,1612)"
        d="m0 0 2 3 4 8 4 10 8 17 12 22 5 8-2 4-7-10-7-14-5-7-9-19-2-3-1-5-4-8v-3l-2-1h4z"
        fill="#108A7D" />
    <path transform="translate(915,703)"
        d="m0 0 7 3 6 3 8 7 4 7v14l-4 8-9 10-11 7-7-1-1-2 13-4 4-2 1-3h3l1-4 5-10v-11l-4-8-5-5v-2l-6-2-5-3z"
        fill="#1D161A" />
    <path transform="translate(734,1071)"
        d="m0 0 2 2 8 17 7 10 5 9 4 4 3 5 7 10 5 5 6 7 9 7v2l-4-1-8-7-12-12-6-8-3-5-8-11-9-15-7-13v-5z"
        fill="#884428" />
    <path transform="translate(817,1798)"
        d="m0 0 3 1 9 11 12 11 4 6v2l5 2 9 10 1 3 4 2 5 4 5 5 8 10 2 3-4-1-9-9-8-7-12-12-7-8-14-15-11-14z"
        fill="#097A71" />
    <path transform="translate(1170,697)"
        d="m0 0h30v1l-14 1-3 1-15 1-16 3-16 5-10 5-8 9-3 6-3 1 1-7 7-9 9-6h3v-2l15-5z"
        fill="#21181A" />
    <path transform="translate(1180,1056)"
        d="m0 0 16 8 10 9 8 10 8 17 4 13v8l-5-4-3-15-5-12-3-6-4-5v-2l-4-2-8-7-2-1-1-3-13-6z"
        fill="#18151A" />
    <path transform="translate(1376,916)"
        d="m0 0 2 2-1 2 4-1 6 2v2h2v2l-7 1h-3v5h2l-1 3h-5v-4h-7l1 5-2 3-4-1-1-3v-7l3-6 5-1 6 2-2-4z"
        fill="#92492B" />
    <path transform="translate(1259,1289)"
        d="m0 0 3 1 4 9v4l-8 4-1 5h-2v2h-5l-4-2-2-5-2-1 2-6 4-1 2 5h4v-2l4-4 1-3h-5v-2h2v-2h3z"
        fill="#1D2939" />
    <path transform="translate(556,977)"
        d="m0 0h2l8 16 10 13 11 13 6 5v2l4 2 8 6 20 9 14 6-4 1-17-6-15-8-13-10-14-14-10-14-9-17z"
        fill="#632E18" />
    <path transform="translate(979,276)"
        d="m0 0 2 1-2 5-5 7 9-4h13l-1 3-5 3-8-1v11l-5 1-8-10-3-2 7-8z" fill="#212C3F" />
    <path transform="translate(1016,182)" d="m0 0h17l31 3 6 2 9 1v3l-6 1-12-2-13-1-12-2-20-2z"
        fill="#141D24" />
    <path transform="translate(1070,1475)"
        d="m0 0h5l3 3v5l5 1 2 3-5 3h-4l-6 1 2 6h-2l1 4-5-1v-3l-5-1 1-6 6-1 4-5 1-5-3 1-3 4-4 2-1 3h-2l1 4-2-1v-2l-2-1 10-10z"
        fill="#B36443" />
    <path transform="translate(1174,338)"
        d="m0 0h2l1 11h10v4l-9 2v7l-1 2-4-1-4-4-2-1v-2l-3-1-1-4 2-3 7 1 1-10z" fill="#222D41" />
    <path transform="translate(1036,1766)" d="m0 0 5 1 2 4 3 1v3l5-1v3l2 1-6 6h-6l-4-3-7-3v-3l4-7z"
        fill="#0A8678" />
    <path transform="translate(868,537)"
        d="m0 0 4 1-1 4-33 6-30 7-3-1 2-3h8v-3h7l3-2 8-1 2-1v2h2v-2l5-2h7l2 1v-2l9-1h3l1-2z"
        fill="#1A151A" />
    <path transform="translate(819,1218)"
        d="m0 0h2l3 7 3 2v4l-6 2h-6v9l-1 2h-5l1-2 1-4-1-6h-6l1-4h3v-2l5-3 1-2 5-1z" fill="#1C2836" />
    <path transform="translate(1159,529)" d="m0 0 11 1 17 2 28 6 10 4 2 3-3 1-40-10-24-5z"
        fill="#1E171B" />
    <path transform="translate(1202,1603)"
        d="m0 0h2l-1 5-4 5h-2l-1 6-4 6-5 7h-2v3l-5-1-1-1v-5l4-2 2-5 3-6 8-6 4-5z" fill="#B36443" />
    <path transform="translate(653,603)" d="m0 0 5 1 3 2-1 7-8 7-2 2v-2h-7l-2 2-2-2 1-5 5-3 4-6z"
        fill="#1E293A" />
    <path transform="translate(1133,380)"
        d="m0 0 2 1v2h2v2l4 1 4 4 2 1-1 4-3 3h-2v2h-5l-7-7-3-4 2-5z" fill="#1C2837" />
    <path transform="translate(1153,361)"
        d="m0 0 4 2v2h2l1 4-4 1-2-4-8 8h-3l1 2 6 1 1 5 2 4-2 4-4-2-7-5-4-4 2-4 13-13z"
        fill="#222D41" />
    <path transform="translate(937,1349)"
        d="m0 0 2 1v1l6-1-2 7-2 4 3-2 3 1-5 5 1 5-1 3-4-1-3-3-2-1-3-5-1-5 3-4h2l2-4z" fill="#1C2836" />
    <path transform="translate(838,418)"
        d="m0 0h6l2 2v5l-4 6-6 5-2 4 5 1-2 4-4-1-3-3-2-1v-4l5-1v-2l3-1 4-7v-2l-6 4-5 6h-2v2h-4l2-4 9-10z"
        fill="#202C3F" />
    <path transform="translate(1303,469)"
        d="m0 0h2l2 8 10 2-1 3-10 1 1 9-3 1-2-1-1-4-6-2-1-3-2-1 1-4 4-1 4 1 1-8z" fill="#212D41" />
    <path transform="translate(1379,650)" d="m0 0 4 1 6 3 2 4 3 4-4 5-5 2-11-11 1-4z" fill="#1C2836" />
    <path transform="translate(1292,1550)" d="m0 0 5 3v2h-2l-2 19-5 17-1 6-4 7h-1v-7l6-28z"
        fill="#148F82" />
    <path transform="translate(1123,390)" d="m0 0 5 5 3 6 5 2-2 4-5 4-4-1-10-11 4-6z" fill="#1C2836" />
    <path transform="translate(1315,1083)"
        d="m0 0h2l-3 10-10 13-1 2h-2l-1 4h-2l-2 4-4 5-8 7-7 6-3-1 16-15 9-11 11-15zm-43 51 2 1-6 6-5 3-2 2-6 1 3-3zm-19 13 2 1-2 1z"
        fill="#1D161A" />
    <path transform="translate(1431,598)"
        d="m0 0 3 1 4 10 3-1-1 10-3 14h-1v-13l-8-5-4-1-1-6 3-1 3 1 1-4z" fill="#232E44" />
    <path transform="translate(974,1052)" d="m0 0h94l-1 2-23 1h-27l-17 1v-3h-26z" fill="#151319" />
    <path transform="translate(1115,1432)"
        d="m0 0 3 1v3h3l-1 5-4 3-2-5 1-2-9 6-2 4 4 3 2-4 5-1-2 5-2 1 1 7-2 2h-3l-1-3-3-1-3-5v-2l-2-1 5-6h2v-2z"
        fill="#B36443" />
    <path transform="translate(887,1086)"
        d="m0 0h13l4 2-12 1-8 5-3 1v2l-4 3-2 7v11l-2 14h-2l-1-17 2-13 7-10 5-4z" fill="#BD6A45" />
    <path transform="translate(1043,1087)" d="m0 0h122l4 1v2h-46v-2h-80z" fill="#B96844" />
    <path transform="translate(994,261)" d="m0 0h2l1 5 8 6 1 4-5 5-5-1-1-3-4-2-4-4 2-5z"
        fill="#1C2836" />
    <path transform="translate(1093,420)" d="m0 0h5l4 4-1 5-4 4 2 4v4h-3l-5-5-5-4 1-5z"
        fill="#212C3F" />
    <path transform="translate(857,1773)"
        d="m0 0 4 2 4 1 7 8 13 13 7 9 5 5 3 4v2l-5-2-5-6v-2h-2l-7-8-20-20z" fill="#138C7F" />
    <path transform="translate(1196,833)" d="m0 0 2 1 1 4 3 3v3l4 2-1 2 2 1-4 4-4 1-8-7-2-3 1-5z"
        fill="#151C29" />
    <path transform="translate(724,1647)"
        d="m0 0 2 1 3 7 8 15 7 14 6 10 8 14 10 18 2 5h-2l-15-26-12-21-15-29-2-4z" fill="#097C72" />
    <path transform="translate(920,534)" d="m0 0h12l-2 2-8 1-16 3-17 2-13 1-5 2h-15l3-2 31-5z"
        fill="#BC6A45" />
    <path transform="translate(504,1670)" d="m0 0h1v109h2l-1 5-2 3-1-1v-62z" fill="#D06E37" />
    <path transform="translate(882,1085)"
        d="m0 0 5 1-3 3-6 5-5 8-2 13-1 23h-1l-1-10-1-1v-16h2l-1-8 4-11 4-2v-2l6-1z" fill="#1F171A" />
    <path transform="translate(1093,1453)"
        d="m0 0 2 2v4l5-3 3 1v4l4 1-2 5-3 1-1 3-4 2-2-5-4-2-4-7 4-4h2z" fill="#B36443" />
    <path transform="translate(1347,681)" d="m0 0 5 1 1 2 4 1 1 5v9l-6-1-8-7-1-5z" fill="#232E43" />
    <path transform="translate(1340,1013)"
        d="m0 0h1l-1 10-11 33-9 20-11 19-13 17-6 7h-2l2-4 8-9 13-19 10-18 8-20 8-24z" fill="#D57035" />
    <path transform="translate(1062,968)"
        d="m0 0 2 2 1 5 11 4-1 2-12 1 1 3 2 1v3l-5 1-7-5-3-3 2-5h4v2l3-1v-3h2l-1-5z" fill="#B36443" />
    <path transform="translate(1044,211)"
        d="m0 0 4 1v9h10l1 3-7 1h-5l3 5-1 4-4 1-1-4-5-1-1-7-3-1 1-2 5 1 3 1z" fill="#1E2A3A" />
    <path transform="translate(1268,559)"
        d="m0 0 9 2 2 1 6 1 7 3v2l5 1 14 7 3 1 5 6v2l-5-2-16-9-25-11-5-2z" fill="#1A151A" />
    <path transform="translate(947,1266)"
        d="m0 0 10 3 21 6 24 4 3 3-2 2-6-1v-2l-14-1-17-3-7-4-10-4-2-1z" fill="#2C1C1B" />
    <path transform="translate(366,1919)" d="m0 0 6 1 3 5 1 4v9l-4-1-10-9-1-3z" fill="#0B8779" />
    <path transform="translate(1165,1052)"
        d="m0 0 13 1 12 5 7 3 6 3 7 8 5 7 2 8h-2l-7-11-9-9-16-9-9-3-9-2z" fill="#C26B42" />
    <path transform="translate(1353,921)"
        d="m0 0h1v19l-3 24-3 18h-1l-1-10v-2l-1-6h2v-11l2-2-1-9 3-6 1-4z" fill="#BF6B43" />
    <path transform="translate(927,1619)"
        d="m0 0 5 1 3 1v5l-5 3v-6l-5 1-1 3-5 5 1 3 5-1v5l3 1-1 5-4 1-4-6-2-2v-2h-2l-1-4 8-7z"
        fill="#B36443" />
    <path transform="translate(1250,521)" d="m0 0h3l5 6v5h7l-3 5-4 2h-4v-2l-3-1-5-9 3-5z"
        fill="#1C2837" />
    <path transform="translate(1024,232)" d="m0 0h4v4h2l1 4-4 6-4 4-2 5-6-4-1-4 4-5 5-4 1-2h2z"
        fill="#1F2A3B" />
    <path transform="translate(1540,1683)" d="m0 0 5 2 15 11v3l-12-8h-7l-1 2v68l-2 1v-76z"
        fill="#0B8879" />
    <path transform="translate(1330,1573)" d="m0 0h5l1 2-2 21-3 15-4 14h-2l1-7 5-31v-12z"
        fill="#0A7F74" />
    <path transform="translate(1067,186)" d="m0 0 13 1 38 7v1l-6 2h-10l-6-2-15-3-2-3-12-2z"
        fill="#142C31" />
    <path transform="translate(796,1682)" d="m0 0h2l10 17 16 24-1 3-7-8-7-10-9-14-5-8z"
        fill="#148A7F" />
    <path transform="translate(787,755)"
        d="m0 0 9 6 3 1h11l13-4 7-3h3v2h-2l-1 3-13 5-13 2-7-1-4-3v-2l-4-2z" fill="#BB6944" />
    <path transform="translate(1120,754)"
        d="m0 0 4 1 8 6 6 1 20-6 4-1h7l-2 2-9 4-9 2-6 2h-10l-6-2-8-7z" fill="#BD6A45" />
    <path transform="translate(803,462)" d="m0 0 4 8 2 1-2 4h-6-4l-2 2v4h-3l-4-8 4-5 5-3 3 1 1 1z"
        fill="#202B3D" />
    <path transform="translate(1267,1279)" d="m0 0h2l3 4 4-1 2 5 3 3-5 5v-2h-2v2l-5-1-2-4-4-4 2-6z"
        fill="#1A2B38" />
    <path transform="translate(1136,1410)"
        d="m0 0 2 1v7l4 2h5l1 3-9 2h-2l2 6-4 3-1-3-3-1-1-4 3-1-2-12z" fill="#B36443" />
    <path transform="translate(1023,233)"
        d="m0 0 3 1v2h-2l-2 4-5 5-2 4 5 5 3 2-1 4-5 4-1-3 2-1-2-4-5-4-3-3 2-4 10-10z" fill="#212C40" />
    <path transform="translate(718,1053)" d="m0 0h2l1 5h-2v4l5-1 2 7-1 5-4-1-1-3-4-1-3-3v-3h-2l2-4z"
        fill="#1D2837" />
    <path transform="translate(963,292)" d="m0 0 3 1-2 6 3-1 3 1 1 12-4 1-11-11 3-5z" fill="#212C40" />
    <path transform="translate(1455,533)" d="m0 0 2 1-2 10-3 17-4 19h-1v-19l1-2 1-12 3-7 1-6z"
        fill="#142D32" />
    <path transform="translate(1084,1463)"
        d="m0 0 1 2-2 2 1 1 2-1 1 2h3v2h-2v3h2v-2l6 1v2h-2l-2 4-4 2-4-1-5-5-2-4 2-4h2l1-3z"
        fill="#B36443" />
    <path transform="translate(924,1363)"
        d="m0 0 2 1v5h3 3v3h-3v3h-2l3 3 3 1-1 3-6-1-6-4v-2l-4-2 2-5z" fill="#1D2837" />
    <path transform="translate(1229,1335)" d="m0 0m-2 1h2l-1 4-14 10-4 2v2l-11 4v-3l7-6 9-6 10-6z"
        fill="#151C22" />
    <path transform="translate(667,595)"
        d="m0 0h2v2l4 1 2 4 4 1 1-2v3l-6 1-2-4-4-2 2 6 4 2-1 4h-4l-1-3-9-5-2-5 2-2 8 1z"
        fill="#1C2836" />
    <path transform="translate(885,1659)" d="m0 0 4 1 5 5 2 4h3l1 5h-2v2l-5-1-6-5-5-7 2-3z"
        fill="#B36443" />
    <path transform="translate(1405,768)"
        d="m0 0 2 1-1 9-2 9-1 1-3 17-1 5h-1l-2-8 1-5v-3l2-1-1-2 1-9 3-5 1-8z" fill="#142A2F" />
    <path transform="translate(1237,1308)" d="m0 0h3l-1 5 7-1-1 7-1 5-5-1-4-2v-2h-2l-2-3 1-4z"
        fill="#1C2836" />
    <path transform="translate(686 1e3)" d="m0 0h2l1 2-1 47-2 2-1-4v-29z" fill="#14141B" />
    <path transform="translate(1565,2010)" d="m0 0 5 1 5 7 1 7-1 2-5-2-8-7 1-6z" fill="#0B8779" />
    <path transform="translate(1355,937)" d="m0 0 2 1v10l3-4 2-3v47h-1l-1-35-5 2-3 2 1-17z"
        fill="#16141B" />
    <path transform="translate(935,529)" d="m0 0 4 1-11 4-46 6-3-1 4-3 22-2 7-1z" fill="#241F25" />
    <path transform="translate(1278,1269)" d="m0 0 9 3-1 6-2 5h-6l-4-7-1-5z" fill="#1C2836" />
    <path transform="translate(1335,1042)" d="m0 0 1 3-3 10-4 9-5 10-5 8-3-1 8-16 8-20z"
        fill="#19151A" />
    <path transform="translate(919,529)" d="m0 0h16l-4 2-22 3-14 2-18 1 1-2 8-1 16-3 3-1h12z"
        fill="#1C2836" />
    <path transform="translate(1183,1139)" d="m0 0h1v9l-4 21-3 11-3 1 1-9 4-17 2-14z" fill="#281B1B" />
    <path transform="translate(1007,1283)"
        d="m0 0 1 4h2v2l7 1 2 4-5 3-4-1-1 3-1-3v-3l-12 1v-2h2l1-2 3 1 2-7z" fill="#1C2836" />
    <path transform="translate(982,274)" d="m0 0 5 2 2 2 1 6h5v1l-12 1-6 3h-3l2-5 3-3 1-6z"
        fill="#1F2A3C" />
    <path transform="translate(1126,1690)"
        d="m0 0m-1 1m-3 1h3l-1 4-13 9-14 9-5 2 2-4 6-4 4-4 5-2 6-5 2 1v-2z" fill="#954C2A" />
    <path transform="translate(778,477)"
        d="m0 0 3 1-4 8 6-3h2v3l-3 3 1 3h3l-1 5-4-1-10-10 1-3 4-4h2z" fill="#202C3E" />
    <path transform="translate(781,1748)"
        d="m0 0 5 5 6 8 6 9 4 7 7 8 3 4v2h2l3 6-4-2-13-17-13-18-6-9z" fill="#097B72" />
    <path transform="translate(1137,880)"
        d="m0 0h2l8 16 7 8 11 8 12 5-1 2-7-1-9-5v-2l-5-2-9-10-7-12z" fill="#B96843" />
    <path transform="translate(818,878)"
        d="m0 0 2 1 7 14 10 11 14 8 6 2v1h-7l-9-4-11-9-1-3h-2l-9-18z" fill="#BA6844" />
    <path transform="translate(1169,1788)"
        d="m0 0 2 1-2 5-9 9-1 2h-2l-2 4-4 4h-2l-1 3h-2l-1 3-4 2 1-4 12-12 1-2h2v-2l5-5 1-2h2l2-4z"
        fill="#0C8478" />
    <path transform="translate(1316,708)" d="m0 0 4 2 10 9 14 11 5 5-5-1-15-10v-2l-3-1-7-8z"
        fill="#B96843" />
    <path transform="translate(1358,673)" d="m0 0 2 1v3l6 1 1 5h2v5l-3 1-4-3-4-1-1-3-2-1v-5z"
        fill="#212D40" />
    <path transform="translate(1261,1304)"
        d="m0 0m-1 1 1 3h-2l3 4-8 7-4 3v-2l-5 3-1-7 2-4 9 2v-2h2v-5z" fill="#142530" />
    <path transform="translate(901,1234)"
        d="m0 0 4 2 4 5 13 10 15 9 4 3-3 1-11-6-9-6-7-5v-2h-3l-7-9z" fill="#1E1619" />
    <path transform="translate(1136,1152)" d="m0 0h2v3l4 1v2l6-1 2 1-3 9h-4l-1-3h-2l-6-8z"
        fill="#BF6C46" />
    <path transform="translate(760,1116)" d="m0 0 5 5 8 11 5 4 5 5 7 6v2l-4-1-8-7-12-12-6-8z"
        fill="#874327" />
    <path transform="translate(878,1050)" d="m0 0h25l16 2-2 2h-39l-1-2z" fill="#261A1A" />
    <path transform="translate(794,1236)" d="m0 0 1 3v5l4 2 3 4-1 4-4-1-10-9 2-5z" fill="#222D42" />
    <path transform="translate(1128,1161)" d="m0 0 5 1 2 8 1 1h2l1 3-4-1v2l-10 2 3-9-3-2v-3h3z"
        fill="#BE6B45" />
    <path transform="translate(1110,409)"
        d="m0 0h6l-1 4 4-1 6 2-3 4h-2v2h-3v-2h-4v-2l2-1-4-1-5 4h-4l2-4 4-3h2z" fill="#1C2837" />
    <path transform="translate(1100,521)" d="m0 0h7l-2 3 15 1v1h-42l-12-1v-1l29-1z" fill="#3C2D2C" />
    <path transform="translate(1362,799)" d="m0 0h1l1 12 1 17 14 1v1h-19l1-23z" fill="#14131A" />
    <path transform="translate(793,1235)"
        d="m0 0 5 1 2 3 4-3 5 6-5-1-1 7 1 4-1 2-2-1-1-5-5-4-1-7-4 2z" fill="#1C2836" />
    <path transform="translate(684,1055)" d="m0 0h1v33l3-1 3 3v10h3v2h-7l-1-3 1-6-3 1z"
        fill="#166163" />
    <path transform="translate(1040,990)"
        d="m0 0 4 1-8 7-6 5-1 2 6 2h2l-1 4 4 4-3 2-1-3-5-2-3-4v-3l-2-1 11-11h2z" fill="#B26342" />
    <path transform="translate(1377,653)" d="m0 0 2 1v3h5l1 6 7-1-5 7-4-2-9-9 1-4z" fill="#222D42" />
    <path transform="translate(1152,366)" d="m0 0h2l2 3h3l-1 5h-3l-2 4-4 3 1-4h-6l-1-3 5-3z"
        fill="#1C2836" />
    <path transform="translate(1237,1511)" d="m0 0 4 2 10 7 17 12 13 10 5 4-5-1-16-12-18-13-10-7z"
        fill="#29A99B" />
    <path transform="translate(1397,804)" d="m0 0h1v8l-3 16-5 2h-4v-2h2v-3h3l2-7 2-12z"
        fill="#1B1A20" />
    <path transform="translate(887,1086)" d="m0 0h13l4 2-12 1-8 5-3 1v2l-7 4 2-5 6-7z"
        fill="#C06B42" />
    <path transform="translate(1295,1255)" d="m0 0 4 1-4 8 1 2-1 4h-3l-1 2-4-2-1-5 5 1-2-5 5-5z"
        fill="#1C2836" />
    <path transform="translate(1051,1279)" d="m0 0h11l-4 2-22 3h-26v-2h32v-2z" fill="#14131A" />
    <path transform="translate(852,747)" d="m0 0h16v2l-21 2-15 4-7 2 2-4 4-1 14-4z" fill="#1D171B" />
    <path transform="translate(1159,355)" d="m0 0 5 1 4 5 1 5h4l-1 4h-3v-2l-5-2-8-7z" fill="#1C2837" />
    <path transform="translate(1021,1015)" d="m0 0h5v4h-2l1 3 6-1h3l-9 9-2-1-1-4-5-5 1-3z"
        fill="#B26342" />
    <path transform="translate(686,927)" d="m0 0 2 4 1 5 1 14v10l-1 6-2-2-1-16z" fill="#14131A" />
    <path transform="translate(900,811)" d="m0 0 4 1v2l4 1 3 2v2h2l5 7 4 11-1 3-8-14-6-7-7-6z"
        fill="#C06A40" />
    <path transform="translate(922,182)" d="m0 0h12l-4 1v2l-23 4-4-1 2-3z" fill="#15161E" />
    <path transform="translate(927,1623)" d="m0 0h3l1 8-2 3-9 1-2-4 6-5z" fill="#994F30" />
    <path transform="translate(1259,1289)" d="m0 0 3 1 4 9v4l-5 1-3-2 1-7h-5v-2h2v-2h3z"
        fill="#1E2A3B" />
    <path transform="translate(1050,1496)" d="m0 0 4 1 1 2 3 1-1 6 3 1-2 4-3-1-2-5-5-2-1-4 3-1z"
        fill="#B36443" />
    <path transform="translate(1360,910)" d="m0 0h1l1 30-3 7-3 2v-11l-2 1v-3h5z" fill="#171E2B" />
    <path transform="translate(1201,698)" d="m0 0h8l1 1 14 2 15 5v1h-9l-8-3-4-1-13-1-1-3z"
        fill="#2A1B1B" />
    <path transform="translate(1270,503)" d="m0 0 2 1-1 2 7 2 1 3 3 2-1 4-6-1-5-5v-2h-2l1-5z"
        fill="#222D41" />
    <path transform="translate(1284,254)" d="m0 0 5 1 16 9 5 4h-2l-1 2-11-6-9-6v-2h-3z"
        fill="#172B37" />
    <path transform="translate(1031,225)" d="m0 0h2v4l5 2 1 5h6l-1 3-5 1-11-9 1-5z" fill="#212C3F" />
    <path transform="translate(950,1596)" d="m0 0 2 3v5l5 2v2l-5 2v8h-3l-3-2v-7h2z" fill="#B16342" />
    <path transform="translate(974,1315)" d="m0 0 4 5 8 7v1l-7 1-3-3-3-1-2-3v-5z" fill="#232E44" />
    <path transform="translate(1225,1108)" d="m0 0 3 1 2 9 1 1-1 27h-1l-2-22-2-11z" fill="#C26C43" />
    <path transform="translate(876,695)" d="m0 0h9l19 4 6 2v1l-12-1-11-1-8-2v-2z" fill="#2F1D1A" />
    <path transform="translate(1387,644)" d="m0 0 5 2 4 4v2h3l1 3-2 2-5-1-4-2-3-6z" fill="#222D42" />
    <path transform="translate(844,1617)" d="m0 0 3 1 2 3v3h2v3l3 1 6 10 3 3 3 5h-3l-11-14-8-12z"
        fill="#854223" />
    <path transform="translate(879,892)"
        d="m0 0 2 1v5l6-1 1 3-2 2-1 2h5l1 3-5 2-7-6 2-1v-2l-4-2v-4z" fill="#141B28" />
    <path transform="translate(793,559)" d="m0 0 5 1v1l-9 3-7 4h-2v2h-2v-8l5-2z" fill="#C36C43" />
    <path transform="translate(1118,1425)" d="m0 0 6 2 5 6 5 4v2h-5l-5-3v-3h-4l-1-5-2-1z"
        fill="#B36443" />
    <path transform="translate(962,1325)" d="m0 0 3 1-2 6h6l1 3 3 2-1 4-5-2-9-7 1-5z" fill="#232E44" />
    <path transform="translate(1e3 1292)" d="m0 0 5 1v10h-5l-2-3v-3l-5-1v-3z" fill="#232E44" />
    <path transform="translate(970,529)" d="m0 0h8l-4 3-13 2h-8l-7-1 1-2z" fill="#BC6A45" />
    <path transform="translate(860,395)" d="m0 0h2l1 11 10-1 1 3-5 1-6 1-4-1v-13z" fill="#202C3F" />
    <path transform="translate(994,261)" d="m0 0h2l-2 4-3 4v2l5 3 6 4-1 3-5-1-1-3-4-2-4-4 2-5z"
        fill="#222D41" />
    <path transform="translate(1200,1610)" d="m0 0h5l-4 8-10 13-2-2 3-5 4-8 1-3h2z" fill="#994E2B" />
    <path transform="translate(804,451)" d="m0 0 3 1 4 8 7 1v3l-4 4h-2l-3-5-7-8z" fill="#212C3F" />
    <path transform="translate(1077,1720)" d="m0 0h3v3l-14 6-5 2h-3l2-5 7-2z" fill="#944C2B" />
    <path transform="translate(845,411)" d="m0 0h3l7 9 4 4-4 2-2-4-5-2-5-6z" fill="#222D41" />
    <path transform="translate(1228,1131)" d="m0 0h1v15h2l2 6 4 2-1 3-5 2h-3z" fill="#B96742" />
    <path transform="translate(1358,842)" d="m0 0h1v36l-2 9h-1v-13l1-26z" fill="#BC6A45" />
    <path transform="translate(1353,921)" d="m0 0h1v19l-2 15-2-4-2-9 3-6 1-4z" fill="#C56C40" />
    <path transform="translate(837,419)" d="m0 0h5l-1 3h-3v2l-5 4-4 5h-2v2h-4l2-4 9-10z"
        fill="#222D41" />
    <path transform="translate(1172,345)" d="m0 0h1l1 11-5 1-2 1v-2l-3-1-1-4 2-3 7 1z"
        fill="#1D2938" />
    <path transform="translate(1028,520)" d="m0 0 8 2 8 1 21 1v1h-38z" fill="#1C2836" />
    <path transform="translate(852,404)" d="m0 0 6 5v2l4 1 2 6-5 1-2-5-4-2-2-4z" fill="#202C3E" />
    <path transform="translate(983,285)" d="m0 0h13l-1 3-5 3-10-2-1 3h-2v-4z" fill="#222D41" />
    <path transform="translate(785,720)" d="m0 0v3l-3 6v17l-4-3h-1v-12l3-3 4-7z" fill="#BD6840" />
    <path transform="translate(788,724)" d="m0 0 5 2 4 4 1 3-4 3-5-5-3-4z" fill="#1C2837" />
    <path transform="translate(1240,533)" d="m0 0 4 1 3 3v2h-5l-2-2-7 6-4 2v-3l7-7z" fill="#1F2B3C" />
    <path transform="translate(1281,1123)" d="m0 0h3l-2 4-11 9-10 7-3-1h2l1-3h3v-2h3l2-4 8-5z"
        fill="#C86C3C" />
    <path transform="translate(1431,598)" d="m0 0 3 1 2 5 2 3v3h-2l-1 3-2-5-3 2-4-1v-3l3 1 1-4z"
        fill="#1D2837" />
    <path transform="translate(692,1578)" d="m0 0 3 1 10 26v5l-2-2-6-15-3-8z" fill="#C16B43" />
    <path transform="translate(899,885)" d="m0 0v3l-3 1 3 3 6-2-1 4-5 5-3-1-2-4-2-2 3-3-2-1z"
        fill="#141B28" />
    <path transform="translate(1044,211)" d="m0 0 4 1v9h10l1 3-7 1-6-2-2-5z" fill="#202C3F" />
    <path transform="translate(847,1757)" d="m0 0 3 1 8 10v2h2l3 5-1 2-8-7-6-8z" fill="#0E8479" />
    <path transform="translate(927,1083)" d="m0 0m-13 0 13 1-3 2h-31l-1-2z" fill="#1C1519" />
    <path transform="translate(997,180)" d="m0 0h22l4 2-7 1-1 1-17-1z" fill="#14252C" />
    <path transform="translate(912,865)" d="m0 0h2l-1 5-6 7-5 1 1-4 7-8z" fill="#14131A" />
    <path transform="translate(1401,635)" d="m0 0 5 1 3 6-1 4-4-1-1-3-3-1v-5z" fill="#242F45" />
    <path transform="translate(575,1717)"
        d="m0 0 2 1-8 9-5 4h-2l-2 4-9 7-4 4v-3l9-8h2l1-3h2v-2l8-6z" fill="#BF6C46" />
    <path transform="translate(1217,1087)" d="m0 0 3 1 4 9 2 6-1 7-2-4-5-13z" fill="#BB6842" />
    <path transform="translate(643,619)" d="m0 0 7 1 4 7-4 2-4-2-4-4z" fill="#222E42" />
    <path transform="translate(1302,475)" d="m0 0h1v7l-5 2 3 3-6-1-1-3-2-1 1-4 4-1 4 1z"
        fill="#1D2838" />
    <path transform="translate(1e3 252)" d="m0 0 1 4 4 1 2 8-5 1v-5l-6-2v-2h2z" fill="#1C2836" />
    <path transform="translate(796,1682)" d="m0 0h2l8 14v3l-4-2-7-11z" fill="#11887D" />
    <path transform="translate(1115,1432)" d="m0 0 3 1v3h3l-1 5-4 3-2-5 1-2-6 4-2-1z" fill="#B26342" />
    <path transform="translate(1361,839)" d="m0 0 2 1v43h-1v-33h-2v-10z" fill="#69321B" />
    <path transform="translate(1440,608)" d="m0 0h1l-1 10-3 14h-1v-13l-1-6 1-3z" fill="#144147" />
    <path transform="translate(869,1108)" d="m0 0h1v30h-1l-1-10-1-1v-16h2z" fill="#14131A" />
    <path transform="translate(1190,1100)" d="m0 0 4 3v17l-5-4v-7z" fill="#202C3E" />
    <path transform="translate(827,1078)" d="m0 0 1 3-8 16-3 10h-2l-1-7 3-3 8-16z" fill="#C46B3D" />
    <path transform="translate(1170,697)" d="m0 0h30v1l-14 1-3 1-13 1-2-2z" fill="#301E1B" />
    <path transform="translate(762,1612)" d="m0 0 2 3 4 8 1 6-5-3-4-8v-3l-2-1h4z" fill="#1A9185" />
    <path transform="translate(975,1048)" d="m0 0 7 1 17 1v2h-21l-7-1z" fill="#C46A3C" />
    <path transform="translate(871,901)" d="m0 0h2v2l3 1 1 7-5-1-1-2h-5v-3z" fill="#141B28" />
    <path transform="translate(935,529)" d="m0 0 4 1-11 4-8 1h-11l2-2z" fill="#1D1D26" />
    <path transform="translate(812,446)" d="m0 0 3 1v2l5 2 2 2-1 4-3 1-4-5-4-3z" fill="#151C29" />
    <path transform="translate(1096,420)" d="m0 0 4 2 2 4-8 5h-2l-1-4z" fill="#151C29" />
    <path transform="translate(1024,237)" d="m0 0h2l-1 6-7 6-3 1v-4l5-5z" fill="#151C29" />
    <path transform="translate(1331,1602)" d="m0 0h1l-1 9-4 14h-2l3-21z" fill="#097D73" />
    <path transform="translate(563,958)" d="m0 0 3 2v2h3v2h2l-2 4h-2v2l-3 1-2-7h2v-2h-2z"
        fill="#834227" />
    <path transform="translate(1257,1300)" d="m0 0 4 3-1 3-2 1-1 5-8-6 2-2h3v-2z" fill="#1C2837" />
    <path transform="translate(1171,1090)" d="m0 0 5 1 5 4v3h2l2 6v7l-2-1-3-9-1-4h-2l-5-5z"
        fill="#B86743" />
    <path transform="translate(1176,918)" d="m0 0 21 1-3 3h-13l-5-1z" fill="#BC6A45" />
    <path transform="translate(896,1679)" d="m0 0 6 2 3 2v2h2l4 5 2 2h-4l-13-11z" fill="#944B2A" />
    <path transform="translate(931,1358)" d="m0 0 3 3v3l4-1 1 7 3 1v2l-4-1-3-3-2-1-3-5z"
        fill="#222D41" />
    <path transform="translate(652,608)" d="m0 0h3l-1 5-5 5h-4l1-6z" fill="#151C29" />
    <path transform="translate(1169,1788)" d="m0 0 2 1-2 5-10 10h-2v-3l5-5 1-2h2l2-4z"
        fill="#0D8378" />
    <path transform="translate(1583,1717)" d="m0 0 5 2 22 22-1 2-19-19-7-6z" fill="#0B8F7F" />
    <path transform="translate(1110,1186)" d="m0 0 3 1-1 3h2l2 5-3 1-2-1v-2h-3l-3 3 1-6z"
        fill="#BD6B45" />
    <path transform="translate(703,725)" d="m0 0 4 1-5 5-1 4v14l-1 11h-1v-28l2-6z" fill="#91492C" />
    <path transform="translate(1370,662)" d="m0 0 4 1 1 7 2 4-5 3-4-1 1-3 3-2 1-5-3-1z"
        fill="#242F45" />
    <path transform="translate(1187,1769)" d="m0 0 2 1-7 9-9 8v-3l6-8h2l2-4z" fill="#0D7E75" />
    <path transform="translate(870,1121)" d="m0 0h1l1 26v14l-3-3z" fill="#4A281D" />
    <path transform="translate(1046,983)" d="m0 0 3 1 1 2 5 1v5l-5 1-4-5-2-1z" fill="#B36443" />
    <path transform="translate(656,799)" d="m0 0 2 3 3 11v6h-3l-2-8z" fill="#14282E" />
    <path transform="translate(848,545)" d="m0 0h7l-1 3-7 1h-7l-8 2h-5l3-2z" fill="#D16F3A" />
    <path transform="translate(722,1062)" d="m0 0h3l1 10-4 1-3-5 2-5z" fill="#222D42" />
    <path transform="translate(1460,499)" d="m0 0h1v15l-2 5-2-3 1-14z" fill="#14141C" />
    <path transform="translate(838,423)" d="m0 0h2l1 3-4 5-6 3h-3l6-8z" fill="#151C29" />
    <path transform="translate(724,1647)" d="m0 0 2 1 3 7 8 15v5l-3-4-10-20z" fill="#097D73" />
    <path transform="translate(1010,1020)" d="m0 0v3l-2 3h7v2l2 1-1 1h-8l-5-2 2-4z" fill="#B36443" />
    <path transform="translate(635,631)" d="m0 0h2l2 5 6-2-1 4-4 3-3-1-1-4-3-1v-3z" fill="#212C40" />
    <path transform="translate(797,465)" d="m0 0 3 1-1 3h-2l-2 4-3 1v2l-4-2 4-6z" fill="#151C29" />
    <path transform="translate(1199,1756)" d="m0 0v3l-9 10-5 3-2-1 7-8 6-5z" fill="#11877C" />
    <path transform="translate(1266,1284)" d="m0 0 5 2 4 4v2l-5 1-6-5v-3z" fill="#222D41" />
    <path transform="translate(1307,1094)" d="m0 0 1 2-12 16-6 7h-2l2-4 8-9 8-11z" fill="#D56E33" />
    <path transform="translate(842,542)" d="m0 0h7l1 3-12 3h-2l1-4z" fill="#1A161C" />
    <path transform="translate(1260,242)" d="m0 0 6 1 9 5-1 3-9-3-4-2z" fill="#193640" />
    <path transform="translate(801,1157)" d="m0 0 8 1 3-1v9l-9-5z" fill="#8C4629" />
    <path transform="translate(866,1647)" d="m0 0h2l4 5 8 7-3 3-10-11z" fill="#834122" />
    <path transform="translate(880,191)" d="m0 0 4 1-4 4-9 3-4-1 7-5z" fill="#14282E" />
    <path transform="translate(963,1324)" d="m0 0 4 1 4 5v2l-8 1-1-2 2-5z" fill="#1D2938" />
    <path transform="translate(1165,1052)" d="m0 0 13 1 12 5v3l-12-5-13-3z" fill="#BC6A45" />
    <path transform="translate(998,1036)" d="m0 0h3l1 4-11 6h-2l2-4z" fill="#834227" />
    <path transform="translate(1123,1254)" d="m0 0 2 1-2 3-5 3-10 5-3-1 4-3 13-7z" fill="#2E1C1A" />
    <path transform="translate(1247,784)" d="m0 0 3 1v5l2 6-4 3-2-3z" fill="#BE6B45" />
    <path transform="translate(1244,541)" d="m0 0 9 3-2 3-3-1h-1-8v-3z" fill="#1F2B3C" />
    <path transform="translate(980,280)" d="m0 0h4l-1 4-3 4-6 1 2-5z" fill="#151C29" />
    <path transform="translate(902,185)" d="m0 0 3 1-4 4-13 1-4-1z" fill="#13393C" />
    <path transform="translate(1219,1801)" d="m0 0h2l-2 4-8 9h-2l-1-3 2-2 3-4 5-3z" fill="#097A71" />
    <path transform="translate(998,1733)" d="m0 0h8l6 1v2h18v1h-19l-9-1v-2z" fill="#B55D2E" />
    <path transform="translate(922,1252)" d="m0 0 5 2 14 8-1 2-6-2-8-5-4-4z" fill="#351F1B" />
    <path transform="translate(1120,1176)" d="m0 0 5 1 1 4 2 3-1 2h-2l-4-4-4-3v-2z" fill="#BF6C46" />
    <path transform="translate(1459,473)" d="m0 0 2 1v19l-3-4v-14z" fill="#14131B" />
    <path transform="translate(966,180)" d="m0 0h31l-2 3-5-1-6 1v-2l-7 1-11-1z" fill="#14131A" />
    <path transform="translate(789,1670)" d="m0 0h2l6 10-2 4-7-10z" fill="#168C81" />
    <path transform="translate(1077,1271)" d="m0 0m-1 1m-2 0 2 2-3 2-9 2h-10l3-2 10-2z"
        fill="#BD6A45" />
    <path transform="translate(1347,681)" d="m0 0 5 1 1 2 4 1 1 5-2 4-2-6-3-1-2-3-3-2z"
        fill="#1C2836" />
    <path transform="translate(653,603)" d="m0 0 5 1 3 2-1 3-3-3h-3l1 2-8 4-1-2 4-5z" fill="#1C2836" />
    <path transform="translate(1234,1312)" d="m0 0 2 3v3l4-2 3 4v2h-3l-1-2-4 1v-2h-2l-1-5z"
        fill="#232E43" />
    <path transform="translate(1244,1152)" d="m0 0v3l-5 4-5 2h-5l-1-2 13-5z" fill="#2B1B1B" />
    <path transform="translate(1363,1018)" d="m0 0h4v6h-2l-1 20h-1z" fill="#BF6C46" />
    <path transform="translate(942,1351)" d="m0 0 3 1-3 6-7 2 1-4h2l2-4z" fill="#151C29" />
    <path transform="translate(890,1805)" d="m0 0 4 2 6 8v2l-5-2-5-6z" fill="#11897C" />
    <path transform="translate(504,1759)" d="m0 0h1v20h2l-1 5-2 3-1-1z" fill="#C36D43" />
    <path transform="translate(1094,1711)" d="m0 0m-1 1m-1 1m-3 1h3v3l-10 5h-2l2-4 4-3z"
        fill="#904928" />
    <path transform="translate(1265,1298)" d="m0 0h2l1 7-6 6-3-1v-2h2l1-4 4-1z" fill="#171C28" />
    <path transform="translate(1e3 1030)" d="m0 0 5 2 7 6-1 3-4 1-2-6-6-4z" fill="#834227" />
    <path transform="translate(1110,410)" d="m0 0 4 1-8 7h-4l2-4z" fill="#151C29" />
    <path transform="translate(1159,355)" d="m0 0h3l3 9-4-1-5-5z" fill="#232E43" />
    <path transform="translate(1152,366)" d="m0 0h2v5h-2l-2 4-5 1 2-4z" fill="#151C29" />
    <path transform="translate(1203,1747)" d="m0 0h3v3l-5 6-5 3-2-1z" fill="#188E83" />
    <path transform="translate(783,1659)" d="m0 0h2l5 11-2 2-6-9z" fill="#138B7F" />
    <path transform="translate(952,1341)" d="m0 0 4 1 2 1v4h3l1 4-5-1-3-4v-2l-3-1z" fill="#232E44" />
    <path transform="translate(818,1340)" d="m0 0 5 1 3 2v2l5 2 1 3-5-2-9-6z" fill="#15272C" />
    <path transform="translate(1295,1255)" d="m0 0 4 1-4 6-5 1v-3z" fill="#151C29" />
    <path transform="translate(826,1214)" d="m0 0 2 1v2l7 1-1 4-3 1-2-1v-3l-5-1v-3z" fill="#232E43" />
    <path transform="translate(1040,990)" d="m0 0 4 1-8 7-6 5h-2v-2l8-7 3-1z" fill="#B36443" />
    <path transform="translate(871,541)" d="m0 0h5l-1 3-8 1h-11l3-2z" fill="#C66C3F" />
    <path transform="translate(973,287)" d="m0 0 1 2h3v3l3-3 2 1-1 5h-3-3l-3-4z" fill="#1C2836" />
    <path transform="translate(414,1877)" d="m0 0 7 6 1 3h-5v-2l-4-2z" fill="#09766F" />
    <path transform="translate(1330,1573)" d="m0 0h5l1 2-1 13-3-3-1-10z" fill="#0B8779" />
    <path transform="translate(1302,1259)" d="m0 0 1 4-6 8-2-2 1-5h2v-2z" fill="#152E38" />
    <path transform="translate(1225,1124)" d="m0 0h3v12l-1 9h-1l-1-15v-4z" fill="#1C161A" />
    <path transform="translate(1449,559)" d="m0 0h1v12l-2 9h-1v-19z" fill="#143438" />
    <path transform="translate(940,1710)" d="m0 0 5 2 7 4v2l-5-1-8-5z" fill="#884425" />
    <path transform="translate(1285,1590)" d="m0 0 3 4-5 10h-1v-7l1-4h2z" fill="#11887D" />
    <path transform="translate(923,1373)" d="m0 0 4 1 1 3 5 2-1 3-6-1-3-6z" fill="#212C40" />
    <path transform="translate(946,1353)" d="m0 0h2l1 5 2 1v3l-4-2-6 1 1-4z" fill="#222E43" />
    <path transform="translate(792,1319)" d="m0 0 5 2 7 7-1 3-11-10z" fill="#14262D" />
    <path transform="translate(1249,1306)" d="m0 0 5 3 2 3-1 2h-5l-2-5z" fill="#232E44" />
    <path transform="translate(1258,1298)" d="m0 0h7l1 5-5 1-3-2z" fill="#232E43" />
    <path transform="translate(993,1279)" d="m0 0h9l3 3-2 2-6-1v-2h-4z" fill="#261A1B" />
    <path transform="translate(853,1181)" d="m0 0 4 1-5 7h-5l2-4z" fill="#151C29" />
    <path transform="translate(1220,701)" d="m0 0 7 1 9 3 3 2h-9l-8-3v-2z" fill="#301D1A" />
    <path transform="translate(1186,698)" d="m0 0h15l3 2-3 1-15-1z" fill="#14131A" />
    <path transform="translate(740,1557)" d="m0 0 2 1-1 1 3 2v5l-5-1-1-1v-6z" fill="#0A8679" />
    <path transform="translate(1125,1418)" d="m0 0h2v2l3 1 1 3h-2l-1 3-5-5v-3l1 1z" fill="#B36443" />
    <path transform="translate(1276,1272)" d="m0 0 3 1v2l4 2-1 5-3-1v-2h-2z" fill="#242F45" />
    <path transform="translate(1255,1144)" d="m0 0 2 1-9 6-6 3-2-1 3-1 1-3 4-2h4v-2z" fill="#CB6D3B" />
    <path transform="translate(701,1074)" d="m0 0h3l1 4-4 2-1 2h-4l2-6z" fill="#151C29" />
    <path transform="translate(846,417)" d="m0 0 5 2 2 1 1-2 5 6-4 2-2-4-5-2z" fill="#1C2837" />
    <path transform="translate(663,391)" d="m0 0 2 1-17 17-2-1 8-9 8-7z" fill="#15464B" />
    <path transform="translate(1151,1866)" d="m0 0 2 1-10 9-8 6-2-1 13-11z" fill="#0B8779" />
    <path transform="translate(509,1782)" d="m0 0h2l-2 6-3 3-1 3h-2v-8l4-1z" fill="#A35838" />
    <path transform="translate(1237,1511)" d="m0 0 4 2 10 7 4 3-1 2-17-12z" fill="#2DAA9D" />
    <path transform="translate(988,278)" d="m0 0 2 4v2h5v1l-13 1 2-6h3z" fill="#1C2836" />
    <path transform="translate(1081,1917)" d="m0 0m-1 1m-1 1m-1 1m-4 1h4l-1 3-8 4-3-1z"
        fill="#097870" />
    <path transform="translate(852,1179)" d="m0 0 1 3-4 4h-3v2h-2l1-5z" fill="#212C40" />
    <path transform="translate(1346,984)" d="m0 0h1l-1 12-2 3-2-8z" fill="#C66D40" />
    <path transform="translate(871,534)" d="m0 0 2 1v2h9l-5 4h-5z" fill="#1C1F29" />
    <path transform="translate(1284,494)" d="m0 0 5 1-1 5-4 2-1-1v-6z" fill="#222D42" />
    <path transform="translate(1116,397)" d="m0 0 5 1 3 3-2 3h-3l-4-6z" fill="#222E42" />
    <path transform="translate(690,373)" d="m0 0h2l-2 4-3 2h-4v2l-6 1 3-3z" fill="#14393E" />
    <path transform="translate(1082,1915)" d="m0 0 3 1-6 4-8 4h-3l8-6z" fill="#0B8779" />
    <path transform="translate(883,1666)" d="m0 0 4 2 5 5 5 6h-3l-11-11z" fill="#854328" />
    <path transform="translate(572,999)" d="m0 0 5 5 6 8h-3l-8-10z" fill="#90492C" />
    <path transform="translate(1447,569)" d="m0 0h1l-1 12-4 1 1-8z" fill="#14141C" />
    <path transform="translate(1248,549)" d="m0 0h2v2h3v2l3 1-1 2-12-5v-1z" fill="#16141A" />
    <path transform="translate(1111,413)" d="m0 0 4 1v3l-2-1v3h-7v-2z" fill="#222D42" />
    <path transform="translate(852,404)" d="m0 0 6 5-2 4-3-1-2-4z" fill="#222D42" />
    <path transform="translate(1245,235)" d="m0 0 9 3 5 2v1h-7l-5-1v-2l-2-1z" fill="#18434A" />
    <path transform="translate(1319,1226)" d="m0 0h6l-2 5-3 4v-3h-2z" fill="#1A3D47" />
    <path transform="translate(1209,824)" d="m0 0 5 1v2l4 2 1 4-5-2z" fill="#14131A" />
    <path transform="translate(1405,768)" d="m0 0 2 1-1 9-2 4-1-13z" fill="#133E40" />
    <path transform="translate(783,732)" d="m0 0 5 2 1 7-3 1-3-8z" fill="#212C3F" />
    <path transform="translate(1345,683)" d="m0 0 1 3 1 4 4 5 3 3-5-2-6-6 1-6z" fill="#1C2836" />
    <path transform="translate(818,445)" d="m0 0 3 1 2 6-5-1-3-2v-3z" fill="#222D42" />
    <path transform="translate(1038,232)" d="m0 0 2 4h5l-1 3-5 1-5-5z" fill="#1C2837" />
    <path transform="translate(698,1594)" d="m0 0h3l4 11v5l-2-2z" fill="#BB6945" />
    <path transform="translate(814,1222)" d="m0 0 1 3-5 5-4 1v-3h2v-2z" fill="#151C29" />
    <path transform="translate(633,622)" d="m0 0h2v5h-2l-2 5-3-2 4-7z" fill="#212C40" />
    <path transform="translate(809,460)" d="m0 0 9 1v3l-4 4h-2l-1-5z" fill="#232E43" />
    <path transform="translate(1255,1524)" d="m0 0 4 2 10 7v3l-14-10z" fill="#26A799" />
    <path transform="translate(1051,1279)" d="m0 0h11l-4 2-11 1-5-1v-1z" fill="#37211C" />
    <path transform="translate(659,598)" d="m0 0h5l3 3v4l-5-2-1-3h-2z" fill="#242F45" />
    <path transform="translate(793,462)" d="m0 0 2 1-8 8v-3zm-9 9 2 1-1 2-1 4v-2l-3 1 2-5z"
        fill="#1E293A" />
    <path transform="translate(940,1347)" d="m0 0 7 1 1 3h-7l-5 2z" fill="#232E44" />
    <path transform="translate(962,1325)" d="m0 0 3 1-3 8-4-2 1-5z" fill="#212C3F" />
    <path transform="translate(815,1142)" d="m0 0h1v14l-2 3-1-10z" fill="#14131A" />
    <path transform="translate(687,1087)" d="m0 0 4 3-2 5h-2v-2h-2v-5z" fill="#212C40" />
    <path transform="translate(1043,993)" d="m0 0h6l-2 5-4 1-2-4z" fill="#B36443" />
    <path transform="translate(804,723)" d="m0 0 2 4 2 5-4 1-3-3 2-3z" fill="#1E2A3A" />
    <path transform="translate(674,586)" d="m0 0 2 4-4 5-3-3-3-1 1 4h-2l-1-4 3-2 5 2h2z"
        fill="#1C2836" />
    <path transform="translate(1101,426)" d="m0 0v3l-5 6-2-1v-2l-2-1 7-4z" fill="#1C2836" />
    <path transform="translate(817,1225)" d="m0 0h3v4l-9 3 2-4z" fill="#242F45" />
    <path transform="translate(1173,1845)" d="m0 0m-1 1m-1 1 1 3-10 9h-3z" fill="#0B8779" />
    <path transform="translate(844,1617)" d="m0 0 3 1 2 3v3h2l-2 4-5-8z" fill="#894525" />
    <path transform="translate(1098,1267)" d="m0 0 2 1-6 4-8 2-1-2z" fill="#2F1D1B" />
    <path transform="translate(947,1266)" d="m0 0 10 3 3 2-5 1-8-4z" fill="#321E1A" />
    <path transform="translate(1126,708)" d="m0 0 2 1-10 8-4 4 2-5 8-7z" fill="#BC6842" />
    <path transform="translate(1281,496)" d="m0 0 2 1-2 5-5 2 1-4z" fill="#151C29" />
    <path transform="translate(1284,254)" d="m0 0 5 1 6 3-1 3-5-2-2-1v-2h-3z" fill="#18353F" />
    <path transform="translate(961,1722)" d="m0 0h5l5 3 2 1v2l-10-3-2-1z" fill="#8B4625" />
    <path transform="translate(806,1697)" d="m0 0 4 5 1 3-2 2-5-7 2-1z" fill="#148D81" />
    <path transform="translate(938,1614)" d="m0 0 1 2h5l-1 4-4 1-1-3h-2v-2h2z" fill="#B36443" />
    <path transform="translate(1123,1166)" d="m0 0 2 1-7 8-4-1h3l1-4 2-2h3z" fill="#BF6C46" />
    <path transform="translate(1185,1123)" d="m0 0h1v9l-3 7h-1l1-11z" fill="#35201C" />
    <path transform="translate(975,1048)" d="m0 0 7 1v3l-11-1z" fill="#C86E3F" />
    <path transform="translate(1118,666)" d="m0 0h1l2 9-4-1-2-2v-3z" fill="#BF6C46" />
    <path transform="translate(685,591)" d="m0 0h4v3l-4 1h-7l-1 3v-4l8-1z" fill="#1C2836" />
    <path transform="translate(967,299)" d="m0 0h3l1 12-4-3-1-5z" fill="#1C2836" />
    <path transform="translate(1164,1795)" d="m0 0 1 3-6 6h-2v-3z" fill="#0D7D74" />
    <path transform="translate(1187,1769)" d="m0 0 2 1-7 9-1-4 5-5z" fill="#0A8477" />
    <path transform="translate(1103,1705)" d="m0 0m-1 1m-1 1m-1 1m-1 1 1 3-6 4h-2l2-4z"
        fill="#964D2B" />
    <path transform="translate(1549,1689)" d="m0 0 4 2 8 6-1 2-10-7z" fill="#0B9080" />
    <path transform="translate(1333,1582)" d="m0 0h1v14l-3-3v-6z" fill="#097D73" />
    <path transform="translate(729,705)" d="m0 0 1 2-3 6-3 3-2-1 3-5z" fill="#9A5032" />
    <path transform="translate(653,605)" d="m0 0 6 1 2 5-5-1z" fill="#232E44" />
    <path transform="translate(745,572)" d="m0 0h5l-1 2-5 3-3 1v-5z" fill="#8C4629" />
    <path transform="translate(1043,226)" d="m0 0h4l3 4-1 4h-3l-2-6z" fill="#222D42" />
    <path transform="translate(885,1869)" d="m0 0 4 2 5 5 2 3-4-2-7-6z" fill="#097D73" />
    <path transform="translate(1239,1777)" d="m0 0 1 3-6 7h-2l2-4z" fill="#097C72" />
    <path transform="translate(1179,1780)" d="m0 0v3l-8 8-2-4 3-2h2z" fill="#158E81" />
    <path transform="translate(978,1727)" d="m0 0 9 3v2l-8-1-3-2h2z" fill="#A2542E" />
    <path transform="translate(835,1203)" d="m0 0h4l3 4-1 2-7-3z" fill="#242F45" />
    <path transform="translate(1236,535)" d="m0 0 2 1-5 7-4 2v-3z" fill="#202C3F" />
    <path transform="translate(1145,527)" d="m0 0h11l2 3h-7l-6-2z" fill="#1E171B" />
    <path transform="translate(1232,231)" d="m0 0 8 1v4l-5-1-1-3z" fill="#151A22" />
</svg>